<?xml version="1.0" standalone="no"?>
<!DOCTYPE svg PUBLIC "-//W3C//DTD SVG 1.1//EN" "http://www.w3.org/Graphics/SVG/1.1/DTD/svg11.dtd" >
<svg xmlns="http://www.w3.org/2000/svg">
<metadata>Generated by IcoMoon</metadata>
<defs>
<font id="ExorFontIcon" horiz-adv-x="1024">
<font-face units-per-em="1024" ascent="960" descent="-64" />
<missing-glyph horiz-adv-x="1024" />
<glyph unicode="&#x20;" horiz-adv-x="512" d="" />
<glyph unicode="&#xe900;" glyph-name="TB-Find" d="M854.109 138.473l-224.815 225.28c38.492 45.202 61.906 104.273 61.906 168.812 0 0.216 0 0.431-0.001 0.647v-0.033c0 146.012-118.366 264.378-264.378 264.378s-264.378-118.366-264.378-264.378c0-146.012 118.366-264.378 264.378-264.378v0c0.182 0 0.398-0.001 0.613-0.001 64.539 0 123.61 23.414 169.18 62.212l-0.368-0.306 225.28-224.815c4.086-4.346 9.872-7.053 16.291-7.053s12.205 2.707 16.28 7.041l0.011 0.012c4.346 4.086 7.053 9.872 7.053 16.291s-2.707 12.205-7.041 16.28l-0.012 0.011zM209.455 533.178c0 120.305 97.527 217.832 217.833 217.832s217.833-97.527 217.833-217.833c0-120.306-97.527-217.833-217.833-217.833-0.164 0-0.327 0-0.491 0.001h0.025c-120.105 0.265-217.367 97.69-217.367 217.832 0 0 0 0 0 0v0z" />
<glyph unicode="&#xe901;" glyph-name="TB-User" d="M512 903.215c-244.21 0-442.182-197.972-442.182-442.182s197.972-442.182 442.182-442.182c244.21 0 442.182 197.972 442.182 442.182v0c-0.528 243.997-198.184 441.653-442.131 442.182h-0.051zM295.098 130.56c5.585 0 11.171 3.724 17.222 4.655 116.364 21.411 132.655 61.44 132.655 101.935v24.669l-7.447 6.982c-24.478 22.713-42.655 51.893-51.826 84.826l-0.305 1.283-4.655 17.222h-18.153c-7.913 0-19.084 39.098-19.084 60.509s3.258 25.6 5.585 27.462 0 0 4.655 0h29.789l-6.982 28.858c-8.262 21.022-13.050 45.368-13.050 70.832 0 26.808 5.308 52.376 14.929 75.711l-0.482-1.321c4.387 5.426 11.043 8.867 18.502 8.867 0.368 0 0.734-0.008 1.098-0.025l-0.052 0.002h7.447l6.051 4.189c31.168 25.597 71.463 41.114 115.381 41.114 35.133 0 67.947-9.93 95.788-27.136l-0.784 0.451c46.545-33.978 54.458-95.418 27.462-168.495l-11.171-31.185h33.047c3.724 0 4.655 0 5.12 0s5.585-8.844 5.585-28.858-10.24-56.32-20.015-59.113h-17.687l-4.655-17.687c-9.48-34.904-27.831-64.715-52.498-87.879l-0.099-0.092-6.982-6.982v-23.738c0-39.564 15.825-80.058 132.189-101.935 6.727-1.477 12.485-3.239 18.043-5.401l-0.821 0.281c-61.083-40.696-136.162-64.939-216.902-64.939s-155.818 24.243-218.352 65.846l1.45-0.907zM771.258 162.676c-14.784 8.076-31.93 14.367-50.045 17.962l-1.155 0.191c-93.091 18.153-93.091 40.96-93.091 56.32v3.724c23.835 24.572 42.329 54.47 53.514 87.726l0.479 1.641c46.545 17.687 46.545 101.469 46.545 103.331 0.163 2.002 0.256 4.335 0.256 6.689 0 20.589-7.111 39.518-19.011 54.464l0.137-0.178c-3.107 2.376-6.618 4.546-10.338 6.355l-0.368 0.161c8.389 19.723 13.266 42.665 13.266 66.746 0 52.38-23.073 99.372-59.61 131.365l-0.201 0.173c-34.856 22.959-77.603 36.624-123.541 36.624-51.364 0-98.737-17.084-136.749-45.879l0.566 0.411c-20.048-1.681-37.432-11.835-48.748-26.824l-0.124-0.172c-32.116-40.96-24.204-115.433-14.895-161.047-3.84-2.545-7.182-5.148-10.314-7.979l0.074 0.066c-12.055-14.929-19.351-34.136-19.351-55.048 0-2.414 0.097-4.805 0.288-7.169l-0.020 0.311s3.258-83.782 46.545-101.935c11.431-34.97 29.962-64.911 54.025-89.4l-0.032 0.033v-4.189c0-15.36 0-39.098-93.091-56.32-19.56-3.45-37.057-9.606-53.086-18.152l0.956 0.465c-83.611 72.93-136.145 179.656-136.145 298.651 0 218.504 177.132 395.636 395.636 395.636s395.636-177.132 395.636-395.636c0-118.996-52.534-225.722-135.675-298.25l-0.47-0.402z" />
<glyph unicode="&#xe902;" glyph-name="TB-Org" d="M512 480.582c-51.413 0-93.091 41.678-93.091 93.091s41.678 93.091 93.091 93.091c51.413 0 93.091-41.678 93.091-93.091v0c0-51.413-41.678-93.091-93.091-93.091v0zM512 620.218c-25.706 0-46.545-20.839-46.545-46.545s20.839-46.545 46.545-46.545c25.706 0 46.545 20.839 46.545 46.545v0c0 25.706-20.839 46.545-46.545 46.545v0zM573.44 33.745h-122.88c-25.706 0-46.545 20.839-46.545 46.545v0 148.945h-9.309c-25.706 0-46.545 20.839-46.545 46.545v0 149.876c0 25.706 20.839 46.545 46.545 46.545v0h232.727c25.706 0 46.545-20.839 46.545-46.545v0-150.807c0-25.706-20.839-46.545-46.545-46.545v0h-10.24v-149.876c-0.946-23.968-19.878-43.223-43.621-44.677l-0.131-0.006zM428.218 275.782h23.273v-196.422h121.949v195.491h56.785v148.945h-232.727v-149.876zM204.8 704c-43.701 0-79.127 35.426-79.127 79.127s35.426 79.127 79.127 79.127c43.701 0 79.127-35.426 79.127-79.127v0c0-43.701-35.426-79.127-79.127-79.127v0zM204.8 815.709c-17.994 0-32.582-14.587-32.582-32.582s14.587-32.582 32.582-32.582c17.994 0 32.582 14.587 32.582 32.582v0c0 17.994-14.587 32.582-32.582 32.582v0zM238.313 313.018h-67.025c-25.706 0-46.545 20.839-46.545 46.545v0 121.018h-9.309c-25.706 0-46.545 20.839-46.545 46.545v0 121.949c0 25.706 20.839 46.545 46.545 46.545v0h178.735c25.706 0 46.545-20.839 46.545-46.545v0-122.88c0-25.706-20.839-46.545-46.545-46.545v0h-10.24v-121.949c-1.010-24.585-20.944-44.195-45.568-44.683l-0.047-0.001zM148.945 527.127h23.273v-168.495h66.095v167.564h55.855v121.018h-178.735v-121.949zM819.2 704c-43.701 0-79.127 35.426-79.127 79.127s35.426 79.127 79.127 79.127c43.701 0 79.127-35.426 79.127-79.127v0c0-43.701-35.426-79.127-79.127-79.127v0zM819.2 815.709c-17.994 0-32.582-14.587-32.582-32.582s14.587-32.582 32.582-32.582c17.994 0 32.582 14.587 32.582 32.582v0c0 17.994-14.587 32.582-32.582 32.582v0zM852.713 313.018h-67.025c-25.706 0-46.545 20.839-46.545 46.545v0 121.018h-10.24c-25.706 0-46.545 20.839-46.545 46.545v0 121.949c0 25.706 20.839 46.545 46.545 46.545v0h178.735c25.706 0 46.545-20.839 46.545-46.545v0-122.88c0-25.706-20.839-46.545-46.545-46.545v0h-9.309v-121.949c-1.010-24.585-20.944-44.195-45.568-44.683l-0.047-0.001zM763.345 527.127h23.273v-168.495h66.095v167.564h56.785v121.018h-179.665v-121.949z" />
<glyph unicode="&#xe903;" glyph-name="TB-Menu" d="M930.909 773.818h-837.818c-25.706 0-46.545 20.839-46.545 46.545s20.839 46.545 46.545 46.545v0h837.818c25.706 0 46.545-20.839 46.545-46.545s-20.839-46.545-46.545-46.545v0zM930.909 401.455h-837.818c-25.706 0-46.545 20.839-46.545 46.545s20.839 46.545 46.545 46.545v0h837.818c25.706 0 46.545-20.839 46.545-46.545s-20.839-46.545-46.545-46.545v0zM930.909 29.091h-837.818c-25.706 0-46.545 20.839-46.545 46.545s20.839 46.545 46.545 46.545v0h837.818c25.706 0 46.545-20.839 46.545-46.545s-20.839-46.545-46.545-46.545v0z" />
<glyph unicode="&#xe904;" glyph-name="T-Delete" d="M861.091 719.825h-176.407v100.538c0 12.853-10.42 23.273-23.273 23.273v0h-298.822c-12.853 0-23.273-10.42-23.273-23.273v0-100.538h-176.407v-46.545h51.665v-597.644c0-12.853 10.42-23.273 23.273-23.273v0h548.305c12.853 0 23.273 10.42 23.273 23.273v0 597.644h51.665zM385.862 797.091h252.276v-77.265h-252.276zM762.88 98.909h-501.76v574.371h501.76zM488.727 571.345h46.545v-370.967h-46.545v370.967zM363.985 571.345h46.545v-370.967h-46.545v370.967zM613.469 571.345h46.545v-370.967h-46.545v370.967z" />
<glyph unicode="&#xe905;" glyph-name="T-Edit" d="M865.745 791.971l-5.12 4.189c-23.566 29.54-59.561 48.304-99.938 48.304-28.020 0-53.93-9.036-74.973-24.353l0.366 0.254-12.102-10.24-499.898-501.76c-2.815-3.059-4.916-6.82-6.010-10.989l-0.040-0.182-51.2-216.436c-0.397-1.592-0.625-3.42-0.625-5.301 0-6.524 2.739-12.408 7.13-16.565l0.011-0.010c4.236-4.024 9.972-6.504 16.288-6.516h5.588l216.436 51.2c4.237 1.479 7.832 3.875 10.69 6.965l0.016 0.017 500.364 499.898c21.656 22.677 34.983 53.469 34.983 87.374 0 37.327-16.154 70.881-41.853 94.053l-0.113 0.1zM812.684 616.029l-40.029-40.029-133.585 131.258 40.029 40.029zM202.938 243.665l105.658-103.796-139.636-32.582zM355.142 158.953l-133.585 131.724 383.535 383.535 134.516-133.12zM844.8 649.542l-132.189 130.327c13.246 9.708 29.866 15.534 47.846 15.534 25.807 0 48.812-12.002 63.736-30.729l0.127-0.165c0.89-1.714 2.151-3.125 3.684-4.164l0.039-0.025 5.12-4.189c16.331-14.717 26.552-35.941 26.552-59.552 0-18.289-6.133-35.145-16.454-48.625l0.141 0.192z" />
<glyph unicode="&#xe906;" glyph-name="T-Help" d="M512-40.727c-269.917 0-488.727 218.811-488.727 488.727s218.811 488.727 488.727 488.727c269.917 0 488.727-218.811 488.727-488.727v0c-0.265-269.81-218.917-488.462-488.702-488.727h-0.026zM512 890.182c-244.21 0-442.182-197.972-442.182-442.182s197.972-442.182 442.182-442.182c244.21 0 442.182 197.972 442.182 442.182v0c-0.265 244.104-198.078 441.917-442.157 442.182h-0.025zM512 291.607c-12.853 0-23.273 10.42-23.273 23.273v0 13.033c0 37.236 4.655 70.749 66.095 132.189s62.836 87.040 62.836 113.105c0.010 0.554 0.016 1.207 0.016 1.862 0 58.353-47.305 105.658-105.658 105.658-0.006 0-0.012 0-0.017 0h-8.377c-1.788 0.109-3.879 0.172-5.984 0.172-28.503 0-54.335-11.438-73.156-29.974l0.013 0.013c-20.643-19.898-33.475-47.778-33.513-78.655v-0.007c-0.756-12.498-11.076-22.347-23.697-22.347-0.178 0-0.356 0.002-0.533 0.006h0.026c-12.403 0.25-22.361 10.364-22.361 22.803 0 0.329 0.007 0.656 0.021 0.982l-0.002-0.047c1.554 42.446 20.205 80.251 49.23 106.956l0.108 0.098c28.302 28.742 67.636 46.549 111.129 46.549 0.368 0 0.735-0.001 1.102-0.004h10.648c81.166-1.030 146.721-66.423 148.013-147.427l0.002-0.122c0-38.633-9.309-82.851-76.335-149.876-52.596-53.062-52.596-74.473-52.596-99.607v-13.033c0.075-0.7 0.117-1.512 0.117-2.335 0-12.853-10.42-23.273-23.273-23.273-0.205 0-0.409 0.003-0.613 0.008l0.030-0.001zM512 192c-1.328-0.33-2.853-0.519-4.422-0.519s-3.094 0.189-4.553 0.546l0.131-0.027c-3.038 1.174-5.657 2.746-7.953 4.688l0.040-0.033c-4.087 4.324-6.6 10.174-6.6 16.611 0 0.707 0.030 1.406 0.090 2.097l-0.006-0.090c-0.213 1.329-0.335 2.861-0.335 4.422s0.122 3.093 0.357 4.587l-0.021-0.166c1.397 2.856 3.107 5.31 5.134 7.462l-0.014-0.015c2.257 2.059 4.87 3.779 7.729 5.047l0.184 0.073c2.614 1.104 5.654 1.746 8.844 1.746s6.229-0.642 8.997-1.803l-0.153 0.057c2.874-1.34 5.336-3.057 7.452-5.125l-0.005 0.005c2.168-2.047 3.902-4.528 5.067-7.306l0.053-0.141c0.207-1.329 0.325-2.862 0.325-4.422s-0.118-3.093-0.346-4.59l0.021 0.168c0.232-1.329 0.365-2.86 0.365-4.422s-0.133-3.093-0.387-4.582l0.023 0.16c-3.285-8.509-11.398-14.435-20.896-14.435-0.181 0-0.362 0.002-0.542 0.006l0.027-0.001z" />
<glyph unicode="&#xe907;" glyph-name="T-Add" d="M512-40.727c-269.917 0-488.727 218.811-488.727 488.727s218.811 488.727 488.727 488.727c269.917 0 488.727-218.811 488.727-488.727v0c-0.265-269.81-218.917-488.462-488.702-488.727h-0.026zM512 890.182c-244.21 0-442.182-197.972-442.182-442.182s197.972-442.182 442.182-442.182c244.21 0 442.182 197.972 442.182 442.182v0c-0.265 244.104-198.078 441.917-442.157 442.182h-0.025zM512 185.018c-12.853 0-23.273 10.42-23.273 23.273v0 479.418c0 12.853 10.42 23.273 23.273 23.273s23.273-10.42 23.273-23.273v0-479.418c0-12.853-10.42-23.273-23.273-23.273v0zM751.709 424.727h-479.418c-12.853 0-23.273 10.42-23.273 23.273s10.42 23.273 23.273 23.273v0h479.418c12.853 0 23.273-10.42 23.273-23.273s-10.42-23.273-23.273-23.273v0z" />
<glyph unicode="&#xe908;" glyph-name="B-Data" d="M791.273 843.636h-558.545c-64.266 0-116.364-52.098-116.364-116.364v0-558.545c0-64.266 52.098-116.364 116.364-116.364v0h558.545c64.266 0 116.364 52.098 116.364 116.364v0 558.545c0 64.266-52.098 116.364-116.364 116.364v0zM861.091 168.727c0-38.56-31.259-69.818-69.818-69.818v0h-558.545c-38.56 0-69.818 31.259-69.818 69.818v0 558.545c0 38.56 31.259 69.818 69.818 69.818v0h558.545c38.56 0 69.818-31.259 69.818-69.818v0zM758.225 621.149h-189.905c-12.853 0-23.273-10.42-23.273-23.273v0c0-12.853 10.42-23.273 23.273-23.273v0h189.905c12.853 0 23.273 10.42 23.273 23.273v0c0 12.853-10.42 23.273-23.273 23.273v0zM758.225 471.273h-189.905c-12.853 0-23.273-10.42-23.273-23.273s10.42-23.273 23.273-23.273v0h189.905c12.853 0 23.273 10.42 23.273 23.273s-10.42 23.273-23.273 23.273v0zM684.218 321.396h-118.691c-12.853 0-23.273-10.42-23.273-23.273v0c0-12.853 10.42-23.273 23.273-23.273v0h118.691c12.853 0 23.273 10.42 23.273 23.273v0c-0.255 12.749-10.524 23.017-23.249 23.272h-0.024zM458.007 621.149h-142.429c-12.853 0-23.273-10.42-23.273-23.273v0c0-12.853 10.42-23.273 23.273-23.273v0h142.429c12.749 0.255 23.017 10.524 23.272 23.249v0.024c0 12.853-10.42 23.273-23.273 23.273v0zM455.68 471.273h-189.905c-12.853 0-23.273-10.42-23.273-23.273s10.42-23.273 23.273-23.273v0h189.905c12.853 0 23.273 10.42 23.273 23.273s-10.42 23.273-23.273 23.273v0zM455.68 321.396h-189.905c-12.853 0-23.273-10.42-23.273-23.273v0c0-12.853 10.42-23.273 23.273-23.273v0h189.905c12.853 0 23.273 10.42 23.273 23.273v0c0 12.853-10.42 23.273-23.273 23.273v0z" />
<glyph unicode="&#xe909;" glyph-name="B-IAM" d="M791.273 843.636h-558.545c-64.266 0-116.364-52.098-116.364-116.364v0-558.545c0-64.266 52.098-116.364 116.364-116.364v0h558.545c64.266 0 116.364 52.098 116.364 116.364v0 558.545c0 64.266-52.098 116.364-116.364 116.364v0zM438.924 261.818c-23.668 20.356-41.127 47.318-49.545 78.020l-0.259 1.107-4.655 16.756h-17.687c-6.982 0-17.687 32.582-18.153 51.665s2.793 20.015 4.189 21.876c0.769 0.197 1.651 0.311 2.56 0.311s1.791-0.113 2.634-0.326l-0.074 0.016h30.72l-7.913 29.324c-7.609 18.173-12.030 39.29-12.030 61.44s4.421 43.267 12.428 62.518l-0.398-1.078c4.026 5.464 10.435 8.97 17.664 8.97 0.828 0 1.646-0.046 2.45-0.136l-0.099 0.009h6.982l5.585 3.724c70.749 46.545 161.978 46.545 211.316 7.913 37.236-30.72 44.218-80.524 20.015-139.636l-13.033-31.651h34.444c2.793 0 4.655 0 5.12 0s4.655-6.982 4.655-23.273-10.705-50.269-18.618-50.269h-17.687l-4.655-16.756c-8.629-32.362-26.275-59.818-50.064-80.351l-0.205-0.173-7.913-6.982v-22.807c0-42.356 21.876-74.473 128-93.091 14.039-11.456 25.58-25.374 34.088-41.168l0.356-0.723h-451.025l8.378 12.567c6.194 10.979 13.294 20.452 21.45 28.899l-0.039-0.041c113.571 19.084 129.396 56.32 129.396 93.091v23.273zM861.091 168.727c0-38.56-31.259-69.818-69.818-69.818v0 0c-0.059 3.307-1.094 6.361-2.829 8.9l0.036-0.056c-14.895 26.996-44.218 73.542-74.007 78.662-90.764 15.825-90.764 36.771-90.764 46.545v0c22.75 21.237 40.431 47.607 51.227 77.283l0.439 1.379c38.633 14.429 46.545 76.8 46.545 93.091 0.121 1.618 0.19 3.506 0.19 5.409 0 19.11-6.938 36.6-18.432 50.088l0.090-0.108c-2.335 2.788-5.108 5.116-8.23 6.904l-0.148 0.078c6.756 16.562 10.677 35.78 10.677 55.913 0 45.586-20.102 86.476-51.925 114.291l-0.178 0.152c-36.54 24.995-81.691 39.914-130.327 39.914s-93.788-14.919-131.128-40.431l0.801 0.516c-20.649-1.383-38.614-11.794-50.14-27.281l-0.129-0.181c-13.214-24.918-20.972-54.476-20.972-85.846 0-19.186 2.902-37.694 8.291-55.11l-0.352 1.319c-4.038-1.972-7.446-4.636-10.204-7.869l-0.036-0.043c-11.43-13.327-18.387-30.782-18.387-49.861 0-2.109 0.085-4.199 0.252-6.265l-0.018 0.272c0-16.756 8.844-78.196 46.545-93.091 11.239-31.209 28.919-57.728 51.562-79.031l0.103-0.096c0-11.171 0-32.582-90.764-46.545-23.738-4.189-39.098-28.393-53.062-50.269-4.135-7.443-8.449-13.836-13.246-19.825l0.214 0.276c-6.195-3.934-10.247-10.758-10.247-18.529 0-0.195 0.003-0.389 0.008-0.583l-0.001 0.029c-38.56 0-69.818 31.259-69.818 69.818v0 558.545c0 38.56 31.259 69.818 69.818 69.818v0h558.545c38.56 0 69.818-31.259 69.818-69.818v0z" />
<glyph unicode="&#xe90a;" glyph-name="B-Devices" d="M791.273 843.636h-558.545c-64.266 0-116.364-52.098-116.364-116.364v0-365.382c0-64.266 52.098-116.364 116.364-116.364v0h256v-146.618h-121.484v-46.545h289.978v46.545h-121.949v146.618h256c64.266 0 116.364 52.098 116.364 116.364v0 365.382c0 64.266-52.098 116.364-116.364 116.364v0zM861.091 361.891c0-38.56-31.259-69.818-69.818-69.818v0h-558.545c-38.56 0-69.818 31.259-69.818 69.818v0 365.382c0 38.56 31.259 69.818 69.818 69.818v0h558.545c38.56 0 69.818-31.259 69.818-69.818v0zM248.553 411.695c-19.537 0-35.375-15.838-35.375-35.375s15.838-35.375 35.375-35.375c19.537 0 35.375 15.838 35.375 35.375v0c0 19.537-15.838 35.375-35.375 35.375v0zM237.382 376.32c0 6.17 5.001 11.171 11.171 11.171v0c6.17 0 11.171-5.001 11.171-11.171v0c0-12.567-22.342-12.567-22.342 0zM263.913 98.909h48.407v-46.545h-48.407v46.545zM163.84 98.909h48.407v-46.545h-48.407v46.545zM711.68 98.909h48.407v-46.545h-48.407v46.545zM811.753 98.909h48.407v-46.545h-48.407v46.545z" />
<glyph unicode="&#xe90b;" glyph-name="B-Dashboard" d="M907.636 445.673v0 281.6c0 64.266-52.098 116.364-116.364 116.364v0h-558.545c-64.266 0-116.364-52.098-116.364-116.364v0-558.545c0-64.266 52.098-116.364 116.364-116.364v0h558.545c64.266 0 116.364 52.098 116.364 116.364v0 276.48zM791.273 797.091c38.56 0 69.818-31.259 69.818-69.818v0-258.327h-479.884v325.818zM162.909 168.727v558.545c0 38.56 31.259 69.818 69.818 69.818v0h101.935v-698.182h-101.935c-38.56 0-69.818 31.259-69.818 69.818v0zM791.273 98.909h-410.065v323.491h479.884v-253.673c0-38.56-31.259-69.818-69.818-69.818v0z" />
<glyph unicode="&#xe90c;" glyph-name="B-Home" d="M946.269 518.749l-417.978 301.615c-3.705 2.833-8.402 4.539-13.498 4.539s-9.793-1.706-13.552-4.578l0.054 0.040-423.098-301.149c-6.029-4.264-9.917-11.207-9.917-19.059 0-5.073 1.623-9.768 4.379-13.591l-0.047 0.069c4.175-5.942 10.999-9.777 18.719-9.777 0.128 0 0.256 0.001 0.384 0.003h-0.019c5.043 0.024 9.716 1.587 13.58 4.242l-0.082-0.053 46.545 31.651v-418.909c0-12.853 10.42-23.273 23.273-23.273v0h669.324c12.853 0 23.273 10.42 23.273 23.273v0 424.495l51.2-37.236c3.755-2.708 8.449-4.332 13.523-4.332 7.852 0 14.795 3.888 19.010 9.845l0.049 0.073c2.671 3.738 4.271 8.401 4.271 13.437 0 7.624-3.666 14.391-9.331 18.636l-0.060 0.043zM821.062 117.527h-625.105v428.218l318.836 228.073 306.269-221.556z" />
<glyph unicode="&#xe90d;" glyph-name="M-Chiudi" d="M545.047 448l425.425 425.891c4.346 4.086 7.053 9.872 7.053 16.291s-2.707 12.205-7.041 16.28l-0.012 0.011c-4.086 4.346-9.872 7.053-16.291 7.053s-12.205-2.707-16.28-7.041l-0.011-0.012-425.891-425.425-425.891 425.425c-4.086 4.346-9.872 7.053-16.291 7.053s-12.205-2.707-16.28-7.041l-0.011-0.012c-4.346-4.086-7.053-9.872-7.053-16.291s2.707-12.205 7.041-16.28l0.012-0.011 425.425-425.891-425.425-425.891c-4.346-4.086-7.053-9.872-7.053-16.291s2.707-12.205 7.041-16.28l0.012-0.011c4.086-4.346 9.872-7.053 16.291-7.053s12.205 2.707 16.28 7.041l0.011 0.012 425.891 425.425 425.891-425.425c4.086-4.346 9.872-7.053 16.291-7.053s12.205 2.707 16.28 7.041l0.011 0.012c4.346 4.086 7.053 9.872 7.053 16.291s-2.707 12.205-7.041 16.28l-0.012 0.011z" />
<glyph unicode="&#xe90e;" glyph-name="M-Data" d="M791.273 843.636h-558.545c-64.266 0-116.364-52.098-116.364-116.364v0-558.545c0-64.266 52.098-116.364 116.364-116.364v0h558.545c64.266 0 116.364 52.098 116.364 116.364v0 558.545c0 64.266-52.098 116.364-116.364 116.364v0zM861.091 168.727c0-38.56-31.259-69.818-69.818-69.818v0h-558.545c-38.56 0-69.818 31.259-69.818 69.818v0 558.545c0 38.56 31.259 69.818 69.818 69.818v0h558.545c38.56 0 69.818-31.259 69.818-69.818v0zM758.225 621.149h-189.905c-12.853 0-23.273-10.42-23.273-23.273v0c0-12.853 10.42-23.273 23.273-23.273v0h189.905c12.853 0 23.273 10.42 23.273 23.273v0c0 12.853-10.42 23.273-23.273 23.273v0zM758.225 471.273h-189.905c-12.853 0-23.273-10.42-23.273-23.273s10.42-23.273 23.273-23.273v0h189.905c12.853 0 23.273 10.42 23.273 23.273s-10.42 23.273-23.273 23.273v0zM684.218 321.396h-118.691c-12.853 0-23.273-10.42-23.273-23.273v0c0-12.853 10.42-23.273 23.273-23.273v0h118.691c12.853 0 23.273 10.42 23.273 23.273v0c-0.255 12.749-10.524 23.017-23.249 23.272h-0.024zM458.007 621.149h-142.429c-12.853 0-23.273-10.42-23.273-23.273v0c0-12.853 10.42-23.273 23.273-23.273v0h142.429c12.749 0.255 23.017 10.524 23.272 23.249v0.024c0 12.853-10.42 23.273-23.273 23.273v0zM455.68 471.273h-189.905c-12.853 0-23.273-10.42-23.273-23.273s10.42-23.273 23.273-23.273v0h189.905c12.853 0 23.273 10.42 23.273 23.273s-10.42 23.273-23.273 23.273v0zM455.68 321.396h-189.905c-12.853 0-23.273-10.42-23.273-23.273v0c0-12.853 10.42-23.273 23.273-23.273v0h189.905c12.853 0 23.273 10.42 23.273 23.273v0c0 12.853-10.42 23.273-23.273 23.273v0z" />
<glyph unicode="&#xe90f;" glyph-name="M-IAM" d="M791.273 843.636h-558.545c-64.266 0-116.364-52.098-116.364-116.364v0-558.545c0-64.266 52.098-116.364 116.364-116.364v0h558.545c64.266 0 116.364 52.098 116.364 116.364v0 558.545c0 64.266-52.098 116.364-116.364 116.364v0zM438.924 261.818c-23.668 20.356-41.127 47.318-49.545 78.020l-0.259 1.107-4.655 16.756h-17.687c-6.982 0-17.687 32.582-18.153 51.665s2.793 20.015 4.189 21.876c0.769 0.197 1.651 0.311 2.56 0.311s1.791-0.113 2.634-0.326l-0.074 0.016h30.72l-7.913 29.324c-7.609 18.173-12.030 39.29-12.030 61.44s4.421 43.267 12.428 62.518l-0.398-1.078c4.026 5.464 10.435 8.97 17.664 8.97 0.828 0 1.646-0.046 2.45-0.136l-0.099 0.009h6.982l5.585 3.724c70.749 46.545 161.978 46.545 211.316 7.913 37.236-30.72 44.218-80.524 20.015-139.636l-13.033-31.651h34.444c2.793 0 4.655 0 5.12 0s4.655-6.982 4.655-23.273-10.705-50.269-18.618-50.269h-17.687l-4.655-16.756c-8.629-32.362-26.275-59.818-50.064-80.351l-0.205-0.173-7.913-6.982v-22.807c0-42.356 21.876-74.473 128-93.091 14.039-11.456 25.58-25.374 34.088-41.168l0.356-0.723h-451.025l8.378 12.567c6.194 10.979 13.294 20.452 21.45 28.899l-0.039-0.041c113.571 19.084 129.396 56.32 129.396 93.091v23.273zM861.091 168.727c0-38.56-31.259-69.818-69.818-69.818v0 0c-0.059 3.307-1.094 6.361-2.829 8.9l0.036-0.056c-14.895 26.996-44.218 73.542-74.007 78.662-90.764 15.825-90.764 36.771-90.764 46.545v0c22.75 21.237 40.431 47.607 51.227 77.283l0.439 1.379c38.633 14.429 46.545 76.8 46.545 93.091 0.121 1.618 0.19 3.506 0.19 5.409 0 19.11-6.938 36.6-18.432 50.088l0.090-0.108c-2.335 2.788-5.108 5.116-8.23 6.904l-0.148 0.078c6.756 16.562 10.677 35.78 10.677 55.913 0 45.586-20.102 86.476-51.925 114.291l-0.178 0.152c-36.54 24.995-81.691 39.914-130.327 39.914s-93.788-14.919-131.128-40.431l0.801 0.516c-20.649-1.383-38.614-11.794-50.14-27.281l-0.129-0.181c-13.214-24.918-20.972-54.476-20.972-85.846 0-19.186 2.902-37.694 8.291-55.11l-0.352 1.319c-4.038-1.972-7.446-4.636-10.204-7.869l-0.036-0.043c-11.43-13.327-18.387-30.782-18.387-49.861 0-2.109 0.085-4.199 0.252-6.265l-0.018 0.272c0-16.756 8.844-78.196 46.545-93.091 11.239-31.209 28.919-57.728 51.562-79.031l0.103-0.096c0-11.171 0-32.582-90.764-46.545-23.738-4.189-39.098-28.393-53.062-50.269-4.135-7.443-8.449-13.836-13.246-19.825l0.214 0.276c-6.195-3.934-10.247-10.758-10.247-18.529 0-0.195 0.003-0.389 0.008-0.583l-0.001 0.029c-38.56 0-69.818 31.259-69.818 69.818v0 558.545c0 38.56 31.259 69.818 69.818 69.818v0h558.545c38.56 0 69.818-31.259 69.818-69.818v0z" />
<glyph unicode="&#xe910;" glyph-name="M-Devices" d="M791.273 843.636h-558.545c-64.266 0-116.364-52.098-116.364-116.364v0-365.382c0-64.266 52.098-116.364 116.364-116.364v0h256v-146.618h-121.484v-46.545h289.978v46.545h-121.949v146.618h256c64.266 0 116.364 52.098 116.364 116.364v0 365.382c0 64.266-52.098 116.364-116.364 116.364v0zM861.091 361.891c0-38.56-31.259-69.818-69.818-69.818v0h-558.545c-38.56 0-69.818 31.259-69.818 69.818v0 365.382c0 38.56 31.259 69.818 69.818 69.818v0h558.545c38.56 0 69.818-31.259 69.818-69.818v0zM248.553 411.695c-19.537 0-35.375-15.838-35.375-35.375s15.838-35.375 35.375-35.375c19.537 0 35.375 15.838 35.375 35.375v0c0 19.537-15.838 35.375-35.375 35.375v0zM237.382 376.32c0 6.17 5.001 11.171 11.171 11.171v0c6.17 0 11.171-5.001 11.171-11.171v0c0-12.567-22.342-12.567-22.342 0zM263.913 98.909h48.407v-46.545h-48.407v46.545zM163.84 98.909h48.407v-46.545h-48.407v46.545zM711.68 98.909h48.407v-46.545h-48.407v46.545zM811.753 98.909h48.407v-46.545h-48.407v46.545z" />
<glyph unicode="&#xe911;" glyph-name="M-Dashboard" d="M907.636 445.673v0 281.6c0 64.266-52.098 116.364-116.364 116.364v0h-558.545c-64.266 0-116.364-52.098-116.364-116.364v0-558.545c0-64.266 52.098-116.364 116.364-116.364v0h558.545c64.266 0 116.364 52.098 116.364 116.364v0 276.48zM791.273 797.091c38.56 0 69.818-31.259 69.818-69.818v0-258.327h-479.884v325.818zM162.909 168.727v558.545c0 38.56 31.259 69.818 69.818 69.818v0h101.935v-698.182h-101.935c-38.56 0-69.818 31.259-69.818 69.818v0zM791.273 98.909h-410.065v323.491h479.884v-253.673c0-38.56-31.259-69.818-69.818-69.818v0z" />
<glyph unicode="&#xe912;" glyph-name="M-Home" d="M946.269 518.749l-417.978 301.615c-3.705 2.833-8.402 4.539-13.498 4.539s-9.793-1.706-13.552-4.578l0.054 0.040-423.098-301.149c-6.029-4.264-9.917-11.207-9.917-19.059 0-5.073 1.623-9.768 4.379-13.591l-0.047 0.069c4.175-5.942 10.999-9.777 18.719-9.777 0.128 0 0.256 0.001 0.384 0.003h-0.019c5.043 0.024 9.716 1.587 13.58 4.242l-0.082-0.053 46.545 31.651v-418.909c0-12.853 10.42-23.273 23.273-23.273v0h669.324c12.853 0 23.273 10.42 23.273 23.273v0 424.495l51.2-37.236c3.755-2.708 8.449-4.332 13.523-4.332 7.852 0 14.795 3.888 19.010 9.845l0.049 0.073c2.671 3.738 4.271 8.401 4.271 13.437 0 7.624-3.666 14.391-9.331 18.636l-0.060 0.043zM821.062 117.527h-625.105v428.218l318.836 228.073 306.269-221.556z" />
<glyph unicode="&#xe913;" glyph-name="E-UserGroup" d="M860.16 342.938l-15.155-15.155c33.174-13.007 57.732-41.492 65.007-76.323l0.119-0.681h-141.722l-20.48-20.48h184.32v10.24c-4.023 45.58-32.104 83.766-71.326 102.080l-0.764 0.32zM443.802 134.451l6.758 6.349h-337.101c3.686 25.19 22.118 88.269 117.146 100.557 86.016 10.854 127.795 39.322 127.795 86.835v17.408l-3.686 3.072c-28.572 23.861-50.407 54.872-62.841 90.305l-0.442 1.445-2.458 7.578h-7.373c-20.48 0-30.72 55.296-30.72 69.632-0.017 0.699-0.026 1.522-0.026 2.348 0 13.906 2.718 27.177 7.65 39.311l-0.251-0.699h13.107l-3.072 12.288c-14.541 58.778-9.626 116.941 12.288 145.203 7.721 11.18 20.4 18.458 34.789 18.637h3.099l2.662 1.843c67.379 46.49 143.36 53.043 194.56 16.589s63.898-100.966 40.96-181.043l-2.662-9.626 9.626-2.867c6.56-10.445 10.452-23.144 10.452-36.751 0-1.914-0.077-3.81-0.228-5.685l0.016 0.247c0-14.336-9.421-69.632-31.334-69.632h-7.782l-2.048-7.578c-9.522-36.352-28.506-67.421-54.166-91.448l-0.106-0.098-3.072-3.072v-17.818c0-31.744 10.854-62.874 81.92-79.667l17.203 17.203c-78.029 15.155-78.234 44.442-78.234 62.874v8.602c24.944 24.461 43.838 55.002 54.288 89.228l0.394 1.499c35.84 8.397 43.622 75.366 43.622 89.293 0 4.71 0 40.96-15.974 56.525 22.323 85.606 3.891 156.672-50.79 195.994-18.543 12.999-40.87 21.902-65.026 24.913l-0.715 0.073c12.334 48.499 55.613 83.8 107.137 83.8 0.999 0 1.994-0.013 2.987-0.040l-0.146 0.003h3.072c1.024 0 94.618 29.491 154.419-14.336 33.792-24.166 50.79-67.584 50.79-129.024 0-173.466 37.274-209.51 77.005-247.194-46.109-10.484-99.255-16.794-153.77-17.404l-0.444-0.004h-10.24v-34.406c-0.063-1.157-0.099-2.512-0.099-3.875 0-13.629 3.608-26.415 9.92-37.455l-0.195 0.37 15.155 15.36c-2.78 6.756-4.395 14.599-4.395 22.819 0 1.194 0.034 2.381 0.101 3.558l-0.007-0.163v14.336c15.974 0 31.949 1.434 47.923 2.662 10.511 9.97 24.748 16.101 40.417 16.101 10.256 0 19.898-2.627 28.29-7.244l-0.304 0.153c16.998 2.867 33.997 6.349 50.79 10.445l17.613 4.096-12.902 12.083-13.517 13.107c-38.093 36.25-70.861 67.584-70.861 232.653 0 68.198-20.48 117.35-59.187 146.022-64.307 47.104-157.491 21.914-171.008 17.818-63.488 0-108.954-36.864-129.229-102.4-48.407-0.152-93.209-15.465-129.938-41.436l0.709 0.476c-19.547-0.963-36.649-10.656-47.601-25.232l-0.117-0.163c-24.781-31.744-31.744-91.75-18.022-154.419-15.155-12.698-15.974-49.152-15.974-57.754 0-13.926 7.782-80.896 43.827-89.293 14.012-36.415 35.784-67.139 63.427-91.318l0.266-0.228v-8.397c0-12.902 0-52.634-109.978-66.56-134.144-17.203-135.782-129.843-135.782-131.072v-10.445h348.16zM701.85 184.013l-15.77-15.974c3.084-7.949 5.327-17.178 6.311-26.779l0.038-0.459h-33.587l-20.48-20.48h74.957v10.24c0 0.042 0 0.092 0 0.142 0 19.317-4.225 37.647-11.801 54.117l0.332-0.806zM864.051 455.373c-15.429 16.79-37.040 27.69-61.201 29.071l-0.239 0.011c-19.425-0.255-36.888-8.449-49.331-21.477l-0.025-0.027-318.054-319.693c-1.301-1.341-2.29-2.992-2.845-4.831l-0.022-0.084-32.154-138.65c-0.174-0.699-0.274-1.502-0.274-2.328 0-2.77 1.122-5.277 2.936-7.093v0c1.763-1.893 4.269-3.073 7.051-3.073 0.041 0 0.082 0 0.124 0.001h2.452l137.216 32.768c1.927 0.452 3.592 1.385 4.918 2.665l-0.003-0.003 317.030 319.898c31.13 31.539 28.058 76.8-7.578 112.845zM751.821 433.459l90.522-91.341-31.539-31.744-90.522 91.341zM448.102 115.405l79.053-79.667-102.4-24.576zM547.226 44.544l-90.522 91.341 249.037 250.675 90.726-91.341zM856.883 356.864v0l-90.726 91.136c8.701 9.415 21.045 15.354 34.778 15.564h0.038c19.113-1.114 36.003-9.8 47.864-23.075l0.059-0.067c21.504-20.685 36.045-55.296 7.987-83.558z" />
<glyph unicode="&#xe914;" glyph-name="E-Forw" d="M1024-64v1024h-1024v-1024zM281.6 473.6h399.616l-143.616 140.544c-4.601 4.627-7.444 11.006-7.444 18.048s2.844 13.421 7.446 18.049l-0.001-0.001c4.626 4.717 11.055 7.649 18.17 7.68h0.006c0.044 0 0.096 0 0.148 0 7.033 0 13.403-2.836 18.030-7.426l-0.002 0.002 204.8-202.496-204.8-202.496c-4.652-4.652-11.078-7.529-18.176-7.529-14.196 0-25.705 11.508-25.705 25.705 0 7.098 2.877 13.524 7.529 18.176v0l143.36 140.544h-399.36c-14.138 0-25.6 11.462-25.6 25.6s11.462 25.6 25.6 25.6v0z" />
<glyph unicode="&#xe915;" glyph-name="ALLARM-DeviceHight" d="M837.818 891.113h-651.636c-0.278 0.002-0.606 0.004-0.935 0.004-64.266 0-116.364-52.098-116.364-116.364 0-0.329 0.001-0.657 0.004-0.985v0.050-435.665c0.525-63.866 52.42-115.436 116.36-115.436 0.329 0 0.657 0.001 0.985 0.004h302.495v-171.287h-139.636v-46.545h325.818v46.545h-139.636v171.287h302.545c64.266 0 116.364 52.098 116.364 116.364v0 434.735c0.002 0.277 0.004 0.604 0.004 0.931 0 64.266-52.098 116.364-116.364 116.364-0.001 0-0.003 0-0.004 0v0zM907.636 339.084c-0.262-38.454-31.364-69.556-69.793-69.818h-651.661c-38.454 0.262-69.556 31.364-69.818 69.793v434.76c-0.001 0.139-0.002 0.303-0.002 0.467 0 38.653 31.203 70.019 69.795 70.282h651.661c0.139 0.001 0.303 0.002 0.467 0.002 38.817 0 70.284-31.467 70.284-70.284 0-0.164-0.001-0.328-0.002-0.492v0.025zM215.040 404.247c-0.138 0.002-0.302 0.003-0.465 0.003-20.565 0-37.236-16.671-37.236-37.236s16.671-37.236 37.236-37.236c20.564 0 37.235 16.67 37.236 37.233v0c0 0.001 0 0.002 0 0.003 0 20.401-16.407 36.971-36.746 37.233h-0.025zM205.265 367.011c0 5.398 4.376 9.775 9.775 9.775v0c0.003 0 0.008 0 0.012 0 5.141 0 9.309-4.168 9.309-9.309 0-0.164-0.004-0.326-0.013-0.488l0.001 0.023c0-12.102-19.084-12.102-19.084 0zM232.262 51.433h54.458v-46.545h-54.458v46.545zM119.622 51.433h54.458v-46.545h-54.458v46.545zM737.28 51.433h54.458v-46.545h-54.458v46.545zM849.92 51.433h54.458v-46.545h-54.458v46.545zM512 481.047c12.853 0 23.273 10.42 23.273 23.273v0 255.535c0 12.853-10.42 23.273-23.273 23.273v0c-12.853 0-23.273-10.42-23.273-23.273v0-255.535c0-12.853 10.42-23.273 23.273-23.273v0zM545.047 425.658c-4.483 3.795-9.52 7.196-14.905 10.023l-0.455 0.217h-8.378c-2.863 0.626-6.152 0.985-9.525 0.985-12.813 0-24.417-5.177-32.834-13.554l0.002 0.002c-4.116-4.294-7.427-9.399-9.664-15.045l-0.11-0.315c-2.358-4.884-3.737-10.621-3.737-16.68 0-0.354 0.005-0.707 0.014-1.059l-0.001 0.052c0-0.080-0.001-0.174-0.001-0.269 0-12.786 5.156-24.369 13.502-32.781l-0.003 0.003c8.436-8.504 20.127-13.768 33.047-13.768s24.611 5.264 33.044 13.765l0.003 0.003c8.292 8.401 13.414 19.948 13.414 32.692 0 6.514-1.338 12.716-3.755 18.345l0.116-0.303c-2.052 6.85-5.411 12.768-9.817 17.736l0.042-0.048z" />
<glyph unicode="&#xe916;" glyph-name="ALLARM-DeviceLow" d="M837.818 891.113h-651.636c-0.278 0.002-0.606 0.004-0.935 0.004-64.266 0-116.364-52.098-116.364-116.364 0-0.329 0.001-0.657 0.004-0.985v0.050-435.665c0.525-63.866 52.42-115.436 116.36-115.436 0.329 0 0.657 0.001 0.985 0.004h302.495v-171.287h-139.636v-46.545h325.818v46.545h-139.636v171.287h302.545c64.266 0 116.364 52.098 116.364 116.364v0 434.735c0.002 0.277 0.004 0.604 0.004 0.931 0 64.266-52.098 116.364-116.364 116.364-0.001 0-0.003 0-0.004 0v0zM907.636 339.084c-0.262-38.454-31.364-69.556-69.793-69.818h-651.661c-38.454 0.262-69.556 31.364-69.818 69.793v434.76c-0.001 0.139-0.002 0.303-0.002 0.467 0 38.653 31.203 70.019 69.795 70.282h651.661c0.139 0.001 0.303 0.002 0.467 0.002 38.817 0 70.284-31.467 70.284-70.284 0-0.164-0.001-0.328-0.002-0.492v0.025zM215.040 404.247c-0.138 0.002-0.302 0.003-0.465 0.003-20.565 0-37.236-16.671-37.236-37.236s16.671-37.236 37.236-37.236c20.564 0 37.235 16.67 37.236 37.233v0c0 0.001 0 0.002 0 0.003 0 20.401-16.407 36.971-36.746 37.233h-0.025zM205.265 367.011c0 5.398 4.376 9.775 9.775 9.775v0c0.003 0 0.008 0 0.012 0 5.141 0 9.309-4.168 9.309-9.309 0-0.164-0.004-0.326-0.013-0.488l0.001 0.023c0-12.102-19.084-12.102-19.084 0zM232.262 51.433h54.458v-46.545h-54.458v46.545zM119.622 51.433h54.458v-46.545h-54.458v46.545zM737.28 51.433h54.458v-46.545h-54.458v46.545zM849.92 51.433h54.458v-46.545h-54.458v46.545z" />
<glyph unicode="&#xe917;" glyph-name="E-V" d="M0 960v-1024h1024v1024zM744.017 565.221l-291.571-291.571-172.463 172.463c-4.923 4.884-7.971 11.652-7.971 19.133s3.048 14.248 7.969 19.131l0.002 0.002c4.871 4.843 11.585 7.836 18.998 7.836s14.127-2.993 18.999-7.837l134.736-134.736 253.575 253.305c4.972 5.781 12.295 9.419 20.468 9.419 14.883 0 26.947-12.065 26.947-26.947 0-8.173-3.638-15.496-9.384-20.438l-0.035-0.030z" />
<glyph unicode="&#xe918;" glyph-name="E-X" d="M0 960v-1024h1024v1024zM724.076 273.92c4.843-4.871 7.836-11.585 7.836-18.998s-2.993-14.127-7.837-18.999l0.001 0.001c-4.871-4.843-11.585-7.836-18.998-7.836s-14.127 2.993-18.999 7.837l-174.079 174.079-174.080-174.080c-4.871-4.843-11.585-7.836-18.998-7.836s-14.127 2.993-18.999 7.837l0.001-0.001c-4.843 4.871-7.836 11.585-7.836 18.998s2.993 14.127 7.837 18.999l174.079 174.079-174.080 174.080c-4.027 4.681-6.48 10.818-6.48 17.528 0 14.883 12.065 26.947 26.947 26.947 6.71 0 12.847-2.452 17.564-6.509l-0.035 0.030 174.080-174.080 174.080 174.080c4.681 4.027 10.818 6.48 17.528 6.48 14.883 0 26.947-12.065 26.947-26.947 0-6.71-2.452-12.847-6.509-17.564l0.030 0.035-174.080-174.080z" />
<glyph unicode="&#xe919;" glyph-name="E-User" d="M442.368 135.475h-297.984c4.506 26.829 26.829 97.894 139.264 119.603 125.952 24.371 136.397 63.898 136.397 99.123v30.106l-3.277 2.253c-30.169 28.062-52.386 64.29-63.145 105.167l-0.343 1.534-2.253 7.578h-7.782c-27.648 0-37.888 68.198-37.888 83.558-0.188 1.852-0.295 4.002-0.295 6.177 0 13.427 4.089 25.9 11.090 36.24l-0.145-0.228c3.994 3.953 9.49 6.396 15.557 6.396 0.507 0 1.010-0.017 1.509-0.051l-0.068 0.004h13.107l-3.277 12.698c-20.48 78.643-18.022 145.408 4.71 174.285 7.516 10.485 19.665 17.236 33.39 17.236 0.574 0 1.144-0.012 1.712-0.035l-0.081 0.003h3.277l3.277 2.048c85.402 59.392 191.283 65.946 257.024 14.95 55.296-42.803 68.403-118.17 35.635-206.643l-5.12-13.722h14.746c0.395 0.024 0.857 0.038 1.322 0.038 6.168 0 11.767-2.434 15.889-6.394l-0.008 0.007c7.014-10.36 11.197-23.135 11.197-36.886 0-2.372-0.125-4.716-0.367-7.024l0.025 0.288c0-13.926-10.24-81.92-38.502-81.92h-7.782l-2.048-7.578c-11.020-42.843-33.41-79.449-63.757-107.596l-0.141-0.129-3.277-3.072v-29.901c-0.059-1.077-0.093-2.338-0.093-3.607 0-14.719 4.554-28.375 12.329-39.635l-0.153 0.234 14.746 14.541c-4.084 7.030-6.494 15.47-6.494 24.473 0 1.334 0.053 2.655 0.157 3.962l-0.011-0.172v20.48c29.655 28.522 51.998 64.437 64.073 104.786l0.439 1.71c40.96 8.192 50.995 86.221 50.995 102.4 0.194 2.112 0.304 4.568 0.304 7.050 0 18.949-6.433 36.395-17.235 50.273l0.138-0.184c-4.914 4.757-10.97 8.363-17.717 10.367l-0.306 0.078c30.515 92.16 13.926 171.213-46.49 218.112-71.885 55.706-186.368 50.381-279.347-12.902-19.506-0.303-36.768-9.649-47.816-24.021l-0.107-0.145c-25.6-32.973-29.696-99.942-11.059-180.838-7.408-1.908-13.78-5.623-18.844-10.652l0.002 0.002c-10.576-13.849-16.946-31.404-16.946-50.446 0-2.717 0.13-5.404 0.383-8.055l-0.026 0.338c0-15.77 9.011-92.774 50.381-102.4 12.521-42.021 34.783-77.922 64.241-106.432l0.066-0.064v-20.48c0-22.118 0-55.706-119.808-78.848-155.034-28.262-156.877-147.046-156.877-148.275v-10.24h314.573zM780.493 265.318l-15.974-16.179c92.16-27.034 111.206-88.883 115.098-113.664h-227.738l-20.48-20.48h269.722v10.24c0 1.229-1.843 99.738-120.627 140.083zM864.051 455.373c-15.429 16.79-37.040 27.69-61.201 29.071l-0.239 0.011c-19.425-0.255-36.888-8.449-49.331-21.477l-0.025-0.027-318.054-319.693c-1.301-1.341-2.29-2.992-2.845-4.831l-0.022-0.084-32.154-138.65c-0.174-0.699-0.274-1.502-0.274-2.328 0-2.77 1.122-5.277 2.936-7.093v0c1.763-1.893 4.269-3.073 7.051-3.073 0.041 0 0.082 0 0.124 0.001h2.452l137.216 32.768c1.927 0.452 3.592 1.385 4.918 2.665l-0.003-0.003 317.030 319.898c31.13 31.539 28.058 76.8-7.578 112.845zM751.821 433.459l90.522-91.341-31.539-31.744-90.522 91.341zM448.102 115.405l79.053-79.667-102.4-24.576zM547.226 44.544l-90.522 91.341 249.037 250.675 90.726-91.341zM856.883 356.864v0l-90.726 91.136c8.701 9.415 21.045 15.354 34.778 15.564h0.038c19.113-1.114 36.003-9.8 47.864-23.075l0.059-0.067c21.504-20.685 36.045-55.296 7.987-83.558z" />
<glyph unicode="&#xe91a;" glyph-name="ALLARM-Hight" d="M1007.709 29.091h-991.418l495.709 860.16zM96.815 75.636h830.371l-415.185 720.524zM512 286.022c-12.853 0-23.273 10.42-23.273 23.273v0 255.535c0.261 12.651 10.579 22.807 23.268 22.807 0.002 0 0.003 0 0.005 0v0c12.749-0.255 23.017-10.524 23.272-23.249v-256.024c-0.514-12.446-10.728-22.342-23.254-22.342-0.007 0-0.013 0-0.020 0h0.001zM512 150.575c-6.561 0.013-12.799 1.381-18.453 3.84l0.301-0.116c-11.227 5.105-20.030 13.908-25.007 24.823l-0.127 0.312c-2.069 5.076-3.269 10.966-3.269 17.136 0 0.357 0.004 0.714 0.012 1.069l-0.001-0.053c0.055 12.715 5.2 24.218 13.501 32.585l-0.003-0.003c2.081 2.231 4.367 4.221 6.843 5.959l0.139 0.092 7.913 4.189 8.844 2.793c2.631 0.528 5.655 0.83 8.75 0.83 12.967 0 24.696-5.302 33.136-13.857l0.005-0.005c8.298-8.364 13.443-19.867 13.498-32.571v-0.011c0.007-0.303 0.011-0.659 0.011-1.016 0-6.17-1.201-12.060-3.381-17.448l0.112 0.312c-5.105-11.227-13.908-20.030-24.823-25.007l-0.312-0.127c-5.213-2.282-11.28-3.644-17.657-3.723h-0.030z" />
<glyph unicode="&#xe91b;" glyph-name="ALLARM-Low" d="M1007.709 29.091h-991.418l495.709 860.16zM96.815 75.636h830.371l-415.185 720.524z" />
<glyph unicode="&#xe91c;" glyph-name="T-System" d="M512 98.909c-0.149 0-0.325 0-0.5 0-193.055 0-349.556 156.502-349.556 349.556s156.502 349.556 349.556 349.556c193.055 0 349.556-156.502 349.556-349.556 0-96.519-39.118-183.9-102.365-247.156v0c-62.691-63.245-149.596-102.402-245.645-102.402-0.368 0-0.735 0.001-1.102 0.002h0.057zM512 750.545c-167.018-0.436-302.244-135.931-302.244-303.010 0-83.368 33.668-158.873 88.149-213.659l-0.014 0.014c54.895-55.202 130.896-89.366 214.876-89.366 167.348 0 303.011 135.663 303.011 303.011s-135.663 303.011-303.011 303.011c-0.27 0-0.539 0-0.809-0.001h0.042zM489.658 316.276l-114.967 114.967c-4.142 4.268-6.695 10.098-6.695 16.524s2.553 12.256 6.701 16.53l-0.006-0.006c4.218 4.252 10.064 6.884 16.524 6.884s12.305-2.632 16.522-6.883l81.922-81.922 158.255 158.72c4.218 4.252 10.064 6.884 16.524 6.884s12.305-2.632 16.522-6.883l0.002-0.002c4.346-4.086 7.053-9.872 7.053-16.291s-2.707-12.205-7.041-16.28l-0.012-0.011z" />
<glyph unicode="&#xe91d;" glyph-name="E-Device" d="M201.114 373.043c0.001-13.233 10.728-23.961 23.962-23.961s23.962 10.728 23.962 23.962c0 13.162-10.612 23.845-23.746 23.961h-0.011c0 0-0.001 0-0.001 0-13.275 0-24.050-10.703-24.165-23.951v-0.011zM228.557 373.043c0-3.686-6.963-3.686-6.963 0 0 1.923 1.559 3.482 3.482 3.482s3.482-1.559 3.482-3.482v0zM238.797 67.891h54.682v-20.48h-54.682v20.48zM129.434 67.891h54.682v-20.48h-54.682v20.48zM730.522 67.891h54.682v-20.48h-54.682v20.48zM839.885 67.891h54.682v-20.48h-54.682v20.48zM880.64 848.589h-737.28c-28.277 0-51.2-22.923-51.2-51.2v0-480.256c0-28.277 22.923-51.2 51.2-51.2v0h145.818l4.71 20.48h-150.528c-16.966 0-30.72 13.754-30.72 30.72v0 480.256c0 16.966 13.754 30.72 30.72 30.72v0h737.28c16.966 0 30.72-13.754 30.72-30.72v0-480.256c0-16.966-13.754-30.72-30.72-30.72v0h-425.37l-20.48-20.48h66.97v-198.042h-153.6v-20.48h327.68v20.48h-153.6v198.042h358.4c28.277 0 51.2 22.923 51.2 51.2v0 480.256c0 28.277-22.923 51.2-51.2 51.2v0zM729.088 665.088c-35.635 35.84-80.486 38.707-111.616 7.578l-316.211-316.211c-1.278-1.324-2.211-2.988-2.648-4.844l-0.014-0.071-32.358-137.011c-0.177-0.691-0.279-1.485-0.279-2.302 0-2.817 1.21-5.352 3.139-7.112l0.008-0.007c1.763-1.893 4.269-3.073 7.051-3.073 0.041 0 0.082 0 0.124 0.001h2.247l137.011 32.358c1.927 0.452 3.592 1.385 4.918 2.665l-0.003-0.003 316.826 316.416c12.649 12.547 20.48 29.935 20.48 49.152 0 0.072 0 0.144 0 0.216v-0.011c-0.933 24.675-11.764 46.65-28.612 62.204l-0.060 0.055zM617.267 643.379l90.112-90.112-31.539-31.334-90.112 89.907zM314.163 328.806l78.643-78.643-102.4-24.166zM413.082 258.97l-90.112 90.112 248.422 248.627 90.317-90.317zM722.125 568.013v0l-90.317 90.317c27.853 27.853 61.44 13.517 81.92-7.373 13.524-11.922 22.359-28.89 23.542-47.929l0.010-0.199c-0.019-13.73-5.834-26.097-15.128-34.791l-0.027-0.025z" />
<glyph unicode="&#xe91e;" glyph-name="D-S-Dash" d="M997.004 448v461.731c0 12.853-10.42 23.273-23.273 23.273v0h-923.462c-12.853 0-23.273-10.42-23.273-23.273v0-923.462c0-12.853 10.42-23.273 23.273-23.273v0h923.462c12.853 0 23.273 10.42 23.273 23.273v0 461.731zM950.458 471.273h-569.251v415.185h569.251zM73.542 886.458h261.12v-876.916h-261.12zM381.207 9.542v415.185h569.251v-415.185z" />
<glyph unicode="&#xe91f;" glyph-name="D-S-DashSmall" d="M856.436 448v0 321.164c0 12.853-10.42 23.273-23.273 23.273v0h-642.327c-12.853 0-23.273-10.42-23.273-23.273v0-642.327c0-12.853 10.42-23.273 23.273-23.273v0h642.327c12.853 0 23.273 10.42 23.273 23.273v0 321.164zM809.891 471.273h-381.673v274.618h381.673zM214.109 745.891h167.564v-595.782h-167.564zM428.218 150.109v274.618h381.673v-274.618z" />
<glyph unicode="&#xe920;" glyph-name="D-S-Save" d="M26.996 933.004v-970.007h970.007v833.164l-136.844 136.844zM443.113 886.458h322.56v-252.276c0-4.113-3.334-7.447-7.447-7.447v0h-307.665c-4.113 0-7.447 3.334-7.447 7.447v0zM796.393 9.542h-568.785v384.465h568.785zM950.458 9.542h-107.52v431.011h-661.876v-431.011h-107.52v876.916h323.025v-252.276c-0.012-0.416-0.018-0.905-0.018-1.396 0-29.819 24.173-53.993 53.993-53.993 0.006 0 0.013 0 0.019 0h307.665c0.005 0 0.012 0 0.018 0 29.819 0 53.993 24.173 53.993 53.993 0 0.491-0.007 0.98-0.020 1.468l0.002-0.072v252.276h28.858l109.382-109.382zM666.065 701.673c12.853 0 23.273 10.42 23.273 23.273v0 61.44c0 12.853-10.42 23.273-23.273 23.273v0c-12.853 0-23.273-10.42-23.273-23.273v0-61.44c0-12.853 10.42-23.273 23.273-23.273v0zM357.935 239.942h308.131c12.853 0 23.273 10.42 23.273 23.273s-10.42 23.273-23.273 23.273v0h-308.131c-12.853 0-23.273-10.42-23.273-23.273s10.42-23.273 23.273-23.273v0zM357.935 116.596h247.156c12.853 0 23.273 10.42 23.273 23.273v0c0 12.853-10.42 23.273-23.273 23.273v0h-247.156c-12.853 0-23.273-10.42-23.273-23.273v0c0.255-12.749 10.524-23.017 23.249-23.272h0.024z" />
<glyph unicode="&#xe921;" glyph-name="D-S-SaveCrono" d="M542.72 810.124c-12.853 0-23.273-10.42-23.273-23.273v0-61.905c0-12.853 10.42-23.273 23.273-23.273s23.273 10.42 23.273 23.273v0 61.905c0 12.853-10.42 23.273-23.273 23.273v0zM990.022 187.345c-4.218 4.252-10.064 6.884-16.524 6.884s-12.305-2.632-16.522-6.883l-0.002-0.002-37.236-37.702c0.694 6.407 1.090 13.838 1.090 21.361 0 57.094-22.793 108.864-59.776 146.708l0.039-0.040c-5.566 5.504-11.486 10.687-17.708 15.495l-0.444 0.33v483.607l-116.364 115.898h-699.578v-815.942h489.658c9.865-36.473 28.131-67.857 52.649-93.145l-0.053 0.055c37.228-37.655 88.888-60.975 145.993-60.975 0.056 0 0.112 0 0.168 0h-0.009c0.012 0 0.026 0 0.040 0 35.849 0 69.522 9.317 98.729 25.661l-1.024-0.526c7.394 3.873 12.352 11.492 12.352 20.27 0 4.19-1.13 8.115-3.101 11.489l0.058-0.108c-3.907 7.281-11.467 12.149-20.164 12.149-4.045 0-7.843-1.053-11.137-2.899l0.115 0.059c-21.975-12.081-48.159-19.188-76.003-19.188-44.092 0-84.021 17.822-112.977 46.655l0.005-0.005c-29.143 29.768-47.126 70.562-47.126 115.555 0 4.872 0.211 9.695 0.624 14.46l-0.043-0.619 31.185-31.185c4.143-4.226 9.911-6.846 16.291-6.846s12.148 2.62 16.287 6.842l0.004 0.004c4.252 4.218 6.884 10.064 6.884 16.524s-2.632 12.305-6.883 16.522l-0.002 0.002-88.902 90.298-90.298-93.091c-4.222-4.142-6.838-9.907-6.838-16.284 0-2.67 0.459-5.233 1.302-7.614l-0.049 0.16h-237.847v324.887h476.625v-112.175c-21.209-4.243-40.061-11.173-57.397-20.547l1.077 0.533c-7.298-4.039-12.158-11.692-12.158-20.48 0-12.884 10.445-23.329 23.329-23.329 4.096 0 7.945 1.055 11.291 2.909l-0.12-0.061c21.482 11.575 47.014 18.377 74.134 18.377 43.738 0 83.344-17.691 112.052-46.308l-0.004 0.004c29.143-29.768 47.126-70.562 47.126-115.555 0-4.872-0.211-9.695-0.624-14.46l0.043 0.619-31.185 31.651c-4.063 3.546-9.413 5.709-15.269 5.709-12.853 0-23.273-10.42-23.273-23.273 0-5.739 2.078-10.994 5.522-15.051l-0.028 0.034 90.298-93.091 90.298 93.091c4.776 4.121 7.781 10.182 7.781 16.945 0 6.090-2.436 11.611-6.388 15.641l0.004-0.004zM381.207 886.458h261.12l-2.327-232.727h-258.793zM512 192.465c0-9.775 0-19.084 0-28.858h-27.462zM150.342 532.713v-369.105h-76.8v722.851h261.12v-228.073c1.428-25.111 21.434-45.118 46.415-46.54l0.131-0.006h256.931c26.102 0.211 47.361 20.659 48.866 46.412l0.006 0.134v228.073h18.153l88.902-88.902v-436.131c-22.46 9.925-48.592 16.017-76.059 16.751l-0.276 0.006v154.531z" />
<glyph unicode="&#xe922;" glyph-name="M-Freccia" d="M512 293.004l-232.727 271.825c-4.226 4.143-6.846 9.911-6.846 16.291s2.62 12.148 6.842 16.287l0.004 0.004c4.268 4.142 10.098 6.695 16.524 6.695s12.256-2.553 16.53-6.701l-0.006 0.006 199.68-232.727 197.353 230.4c4.268 4.142 10.098 6.695 16.524 6.695s12.256-2.553 16.53-6.701l-0.006 0.006c4.963-4.211 8.092-10.453 8.092-17.425 0-5.829-2.187-11.147-5.784-15.179l0.020 0.022z" />
<glyph unicode="&#xe923;" glyph-name="D-S-SaveSmall" d="M167.564 792.436v-688.873h688.873v589.731l-99.142 99.142zM683.287 578.327h-212.247v167.564h210.385zM702.836 150.109h-381.673v251.345h381.673zM809.891 150.109h-60.509v297.891h-474.764v-297.891h-60.509v595.782h210.385v-169.425c0-25.706 20.839-46.545 46.545-46.545v0h214.109c25.706 0 46.545 20.839 46.545 46.545v0 169.425h9.775l68.422-72.145zM512 617.425c12.853 0 23.273 10.42 23.273 23.273v0 42.822c0 12.853-10.42 23.273-23.273 23.273s-23.273-10.42-23.273-23.273v0-42.822c0-12.853 10.42-23.273 23.273-23.273v0zM404.945 296.262h214.109c12.853 0 23.273 10.42 23.273 23.273s-10.42 23.273-23.273 23.273v0h-214.109c-12.853 0-23.273-10.42-23.273-23.273s10.42-23.273 23.273-23.273v0zM426.356 210.618h171.287c12.853 0 23.273 10.42 23.273 23.273s-10.42 23.273-23.273 23.273v0h-171.287c-12.853 0-23.273-10.42-23.273-23.273s10.42-23.273 23.273-23.273v0z" />
<glyph unicode="&#xe924;" glyph-name="D-Slot" d="M238.778 245.993v46.545h93.091v-46.545zM424.96 245.993v46.545h93.091v-46.545zM611.142 245.993v46.545h93.091v-46.545zM797.324 245.993l-2.793 46.545c24.319 1.527 45.071 15.458 56.14 35.486l0.18 0.354 40.495-22.342c-18.505-33.824-52.51-57.154-92.203-60.481l-0.423-0.029zM139.636 293.004c-14.246 19.139-22.807 43.243-22.807 69.346 0 0.002 0 0.004 0 0.007v0 33.978h46.545v-33.978c0-0.048 0-0.105 0-0.162 0-15.522 5.065-29.861 13.633-41.454l-0.134 0.19zM861.091 407.971v93.091h46.545v-93.091zM116.364 489.425v93.091h46.545v-93.091zM861.091 594.153v93.091h46.545v-93.091zM116.364 675.607v51.665c0.082 17.937 4.194 34.894 11.475 50.039l-0.304-0.701 41.891-20.015c-3.79-8.626-6.151-18.652-6.513-29.187l-0.004-0.137v-51.665zM850.385 764.509c-12.611 19.439-34.207 32.117-58.764 32.117-0.123 0-0.245 0-0.368-0.001h0.019v46.545c39.941-0.986 74.798-21.869 95.143-53.078l0.275-0.45zM223.884 796.625l-6.051 46.545c2.303 0.239 4.975 0.376 7.68 0.376s5.377-0.136 8.012-0.403l-0.332 0.027h92.625v-46.545h-93.091zM418.909 797.091v46.545h93.091v-46.545zM605.091 797.091v46.545h93.091v-46.545zM249.018 411.695v0c-0.001 0-0.002 0-0.003 0-19.373 0-35.109-15.573-35.371-34.884v-0.025c0-0.004 0-0.008 0-0.012 0-19.467 15.52-35.308 34.861-35.827l0.048-0.001c0.034 0 0.074 0 0.114 0 9.689 0 18.417 4.112 24.536 10.685l0.019 0.020c6.209 6.367 10.039 15.080 10.039 24.687 0 19.139-15.199 34.728-34.185 35.355l-0.058 0.002zM258.327 365.149c-2.464-2.588-5.935-4.197-9.782-4.197-0.161 0-0.322 0.003-0.481 0.008l0.023-0.001c-6.783 1.266-11.848 7.14-11.848 14.196s5.066 12.93 11.759 14.182l0.089 0.014c0.002 0 0.005 0 0.008 0 7.712 0 13.964-6.252 13.964-13.964 0-0.164-0.003-0.327-0.008-0.489l0.001 0.024c-0.152-3.29-1.547-6.228-3.722-8.377l-0.001-0.001zM488.262 192h46.545v-110.313h-46.545v110.313zM366.778 98.909h289.978v-46.545h-289.978v46.545zM263.447 98.909h48.407v-46.545h-48.407v46.545zM163.375 99.375h48.407v-46.545h-48.407v46.545zM711.215 98.909h48.407v-46.545h-48.407v46.545zM811.753 98.909h48.407v-46.545h-48.407v46.545z" />
<glyph unicode="&#xe925;" glyph-name="E-Edit" d="M882.483 696.013c-5.179 31.761-20.602 59.245-42.705 79.578l-0.098 0.089c-52.224 52.429-117.965 56.934-163.84 11.469l-482.509-482.509c-1.315-1.3-2.256-2.976-2.651-4.852l-0.011-0.063-49.357-210.125c-0.366-1.010-0.578-2.177-0.578-3.392 0-2.637 0.997-5.041 2.634-6.857l-0.008 0.009c1.763-1.893 4.269-3.073 7.051-3.073 0.041 0 0.082 0 0.124 0.001h3.066l209.715 49.562c1.886 0.364 3.506 1.316 4.703 2.654l0.007 0.008 483.942 484.762c19.162 18.114 31.089 43.708 31.089 72.089 0 3.752-0.208 7.455-0.614 11.099l0.041-0.448zM672.973 755.2l146.227-146.227-55.501-55.706-146.022 146.022zM206.234 276.378l134.144-134.144-175.514-42.394zM360.653 150.835l-145.818 145.818 389.12 389.12 145.818-145.818zM837.632 627.814l-4.301-4.301-145.818 145.818 4.096 4.301c45.67 45.261 100.762 22.528 134.554-11.469 18.759-17.609 31.701-41.218 35.758-67.751l0.082-0.653c0.306-2.6 0.48-5.613 0.48-8.666 0-22.579-9.54-42.929-24.808-57.24l-0.043-0.040z" />
<glyph unicode="&#xe926;" glyph-name="T-Device" d="M205.731 418.676c-17.993-0.002-32.578-14.589-32.578-32.582 0-17.994 14.587-32.582 32.582-32.582s32.582 14.587 32.582 32.582c0 0.164-0.001 0.327-0.004 0.49v-0.025c-0.262 17.793-14.748 32.116-32.578 32.116-0.001 0-0.002 0-0.003 0v0zM195.025 386.56c0 5.912 4.793 10.705 10.705 10.705v0c0.003 0 0.006 0 0.010 0 6.006 0 10.905-4.74 11.16-10.682l0.001-0.023c0-12.102-21.876-12.102-21.876 0zM216.436 149.178h43.287v-43.287h-43.287v43.287zM130.327 149.178h43.287v-43.287h-43.287v43.287zM605.091 149.178h43.287v-43.287h-43.287v43.287zM777.775 516.422v164.305c0.001 0.138 0.001 0.302 0.001 0.465 0 59.896-48.555 108.451-108.451 108.451 0 0-0.001 0-0.001 0h-473.833c0 0-0.001 0-0.001 0-59.896 0-108.451-48.555-108.451-108.451 0-0.164 0-0.327 0.001-0.491v0.025-294.633c0.264-59.695 48.718-107.985 108.45-107.985 0 0 0.001 0 0.001 0h215.040v-128.931h-107.52v-43.753h258.793v43.753h-107.52v128.931h104.262c17.435-66.494 68.082-118.067 132.701-136.514l1.35-0.33v-35.84h42.822v28.858h9.309c106.11 0.752 191.838 86.944 191.838 193.159 0 94.198-67.428 172.648-156.651 189.718l-1.209 0.192zM195.491 321.862c-35.989 0-65.164 29.175-65.164 65.164v293.702c0 35.989 29.175 65.164 65.164 65.164v0h473.833c35.989 0 65.164-29.175 65.164-65.164v-162.909c-102.355-5.090-183.465-89.126-183.854-192.194v-0.038s0-3.258 0-4.655zM744.727 176.64c-82.774 0-149.876 67.102-149.876 149.876s67.102 149.876 149.876 149.876c82.774 0 149.876-67.102 149.876-149.876v0c0-82.774-67.102-149.876-149.876-149.876v0zM837.818 348.393h-69.818v69.353c0 12.082-9.794 21.876-21.876 21.876s-21.876-9.794-21.876-21.876v-69.353h-72.611c-12.082 0-21.876-9.794-21.876-21.876s9.794-21.876 21.876-21.876h69.353v-69.818c0-12.082 9.794-21.876 21.876-21.876s21.876 9.794 21.876 21.876v0 69.818h73.076c12.082 0 21.876 9.794 21.876 21.876s-9.794 21.876-21.876 21.876v0z" />
<glyph unicode="&#xe927;" glyph-name="T-DeviceGroup" d="M258.793 366.080c-17.994 0-32.582-14.587-32.582-32.582s14.587-32.582 32.582-32.582c17.994 0 32.582 14.587 32.582 32.582v0c0 17.994-14.587 32.582-32.582 32.582v0zM247.622 333.498c0 0.003 0 0.007 0 0.010 0 5.912 4.793 10.705 10.705 10.705 0.164 0 0.327-0.004 0.488-0.011l-0.023 0.001c5.912 0 10.705-4.793 10.705-10.705v0c0-12.102-21.876-12.102-21.876 0zM269.498 96.116h43.287v-43.287h-43.287v43.287zM183.389 96.116h43.287v-43.287h-43.287v43.287zM658.153 96.116h43.287v-43.287h-43.287v43.287zM830.836 463.36v146.618c-0.384 63.313-46.676 115.699-107.247 125.573l-0.738 0.099c-9.804 61.268-62.279 107.52-125.556 107.52-0.041 0-0.082 0-0.123 0h-435.659c-70.435 0-127.535-57.099-127.535-127.535v0-256.931c0.384-63.313 46.676-115.699 107.247-125.573l0.738-0.099c9.804-61.268 62.279-107.52 125.556-107.52 0.041 0 0.082 0 0.123 0h197.812v-129.396h-109.382v-43.287h258.793v43.287h-107.52v129.396h102.865c17.693-66.501 68.454-118.034 133.16-136.512l1.356-0.331v-35.84h43.287v28.393h9.309c106.11 0.752 191.838 86.944 191.838 193.159 0 94.198-67.428 172.648-156.651 189.718l-1.209 0.192zM139.636 609.978v-232.727c-36.201 9.908-62.435 42.33-62.836 80.944v257.442c0 0 0 0.001 0 0.001 0 46.528 37.719 84.247 84.247 84.247 0.164 0 0.327 0 0.491-0.001h435.64c0.103 0 0.226 0.001 0.348 0.001 38.57 0 71.019-26.209 80.509-61.79l0.132-0.582h-410.531c-0.138 0.001-0.302 0.001-0.465 0.001-70.435 0-127.535-57.099-127.535-127.535 0 0 0-0.001 0-0.001v0zM267.171 268.8c-46.337 0.252-83.802 37.874-83.802 84.246 0 0.655 0.007 1.308 0.022 1.96l-0.002-0.097v255.069c0.263 46.423 37.825 83.985 84.222 84.247h435.69c46.423-0.263 83.985-37.825 84.247-84.222v-144.316c-103.46-3.61-185.984-88.252-186.182-192.213v-0.019s0-2.793 0-4.655zM796.858 122.182c-82.774 0-149.876 67.102-149.876 149.876s67.102 149.876 149.876 149.876c82.774 0 149.876-67.102 149.876-149.876v0c0-82.774-67.102-149.876-149.876-149.876v0zM888.087 295.331h-69.818v69.818c0.003 0.14 0.005 0.305 0.005 0.471 0 11.568-9.378 20.945-20.945 20.945-0.166 0-0.331-0.002-0.495-0.006h0.024c-0.139 0.003-0.302 0.005-0.465 0.005-11.825 0-21.411-9.586-21.411-21.411 0-0.002 0-0.004 0-0.005v0-69.818h-69.818c-0.002 0-0.003 0-0.005 0-11.825 0-21.411-9.586-21.411-21.411 0-0.164 0.002-0.327 0.005-0.49v0.024c-0.003-0.14-0.005-0.305-0.005-0.471 0-11.568 9.378-20.945 20.945-20.945 0.166 0 0.331 0.002 0.495 0.006h69.794v-69.818c0-12.082 9.794-21.876 21.876-21.876v0c0.002 0 0.003 0 0.005 0 11.825 0 21.411 9.586 21.411 21.411 0 0.164-0.002 0.327-0.005 0.49v-0.024 69.818h69.818c0.139-0.003 0.302-0.005 0.465-0.005 11.825 0 21.411 9.586 21.411 21.411 0 0.002 0 0.004 0 0.005v0c0 12.082-9.794 21.876-21.876 21.876v0z" />
<glyph unicode="&#xe928;" glyph-name="T-Status" d="M512 41.658l-93.091 99.607 13.964 15.825c2.116 2.578 4.404 4.865 6.896 6.913l0.086 0.068c18.681 18.207 44.238 29.437 72.418 29.437 1.705 0 3.4-0.041 5.085-0.122l-0.238 0.009c29.995-1.367 56.535-15.097 74.828-36.176l0.11-0.13 13.964-15.825zM483.607 139.869l28.393-30.255 28.393 30.255c-8.222 4.456-18.002 7.075-28.393 7.075s-20.17-2.619-28.714-7.233l0.321 0.158zM704.698 288.815c-0.158-0.004-0.343-0.006-0.529-0.006-5.924 0-11.309 2.305-15.307 6.068l0.011-0.011c-46.317 42.887-108.522 69.195-176.873 69.195s-130.556-26.308-177.043-69.351l0.171 0.156c-3.951-3.194-9.036-5.127-14.572-5.127-12.853 0-23.273 10.42-23.273 23.273 0 6.348 2.542 12.103 6.663 16.301l-0.004-0.004c54.494 50.422 127.664 81.351 208.058 81.351s153.564-30.929 208.261-81.536l-0.203 0.185c4.252-4.218 6.884-10.064 6.884-16.524s-2.632-12.305-6.883-16.522l-0.002-0.002c-3.876-4.203-9.256-6.969-15.279-7.442l-0.081-0.005zM841.542 452.655c-0.051 0-0.111-0.001-0.171-0.001-6.037 0-11.537 2.299-15.673 6.068l0.018-0.017c-82.461 75.536-192.8 121.821-313.949 121.821s-231.488-46.285-314.298-122.137l0.349 0.316c-4.148-3.624-9.612-5.834-15.593-5.834-13.119 0-23.754 10.635-23.754 23.754 0 7.139 3.149 13.542 8.133 17.896l0.028 0.024c90.432 83.561 211.798 134.809 345.135 134.809s254.703-51.248 345.478-135.122l-0.343 0.313c4.226-4.143 6.846-9.911 6.846-16.291s-2.62-12.148-6.842-16.287l-0.004-0.004c-3.612-4.916-9.015-8.334-15.23-9.293l-0.13-0.017zM977.455 614.633c-0.051 0-0.111-0.001-0.171-0.001-6.037 0-11.537 2.299-15.673 6.068l0.018-0.017c-117.802 108.882-275.917 175.662-449.629 175.662s-331.828-66.78-450.074-176.068l0.445 0.406c-4.15-3.823-9.714-6.167-15.825-6.167-12.917 0-23.389 10.472-23.389 23.389 0 6.806 2.907 12.933 7.547 17.207l0.016 0.015c126.165 116.381 295.389 187.744 481.28 187.744s355.115-71.364 481.769-188.19l-0.489 0.445c4.252-4.218 6.884-10.064 6.884-16.524s-2.632-12.305-6.883-16.522l-0.002-0.002c-4.035-4.228-9.569-6.995-15.747-7.443l-0.079-0.005z" />
<glyph unicode="&#xe929;" glyph-name="T-Suser" d="M884.364 890.647h-744.727c-13.11 0-23.738-10.628-23.738-23.738v0-837.818c0-13.11 10.628-23.738 23.738-23.738v0h744.727c13.11 0 23.738 10.628 23.738 23.738v0 837.818c0 13.11-10.628 23.738-23.738 23.738v0zM860.625 844.102v-539.927h-698.182v538.996zM162.444 52.829v203.869h698.182v-203.869zM768.931 188.742h-167.564c-10.947-2.258-19.060-11.818-19.060-23.273s8.113-21.014 18.907-23.246l0.154-0.027h167.564c10.947 2.258 19.060 11.818 19.060 23.273s-8.113 21.014-18.907 23.246l-0.154 0.027zM346.764 381.44h330.473c0.418-0.005 0.911-0.008 1.405-0.008 64.549 0 116.968 51.935 117.751 116.298l0.001 0.074v167.098c-0.786 64.692-53.413 116.833-118.217 116.833-0.33 0-0.66-0.001-0.99-0.004h-330.423c-0.279 0.002-0.609 0.004-0.939 0.004-64.804 0-117.431-52.14-118.217-116.759l-0.001-0.074v-167.098c0.784-64.437 53.203-116.372 117.752-116.372 0.494 0 0.987 0.003 1.479 0.009l-0.075-0.001zM274.618 664.902c0.78 38.728 32.359 69.824 71.201 69.824 0.332 0 0.664-0.002 0.995-0.007l-0.050 0.001h330.473c0.417 0.009 0.909 0.014 1.402 0.014 38.751 0 70.226-31.155 70.743-69.783l0.001-0.049v-167.098c-0.776-38.474-32.148-69.367-70.736-69.367-0.496 0-0.99 0.005-1.484 0.015l0.074-0.001h-330.473c-0.284-0.004-0.619-0.006-0.955-0.006-38.678 0-70.155 30.835-71.188 69.264l-0.002 0.096z" />
<glyph unicode="&#xe92a;" glyph-name="T-User" d="M954.182 5.353h-884.364v23.738s0 139.636 183.389 174.545c122.415 22.807 122.415 53.527 122.415 73.542v17.687c-30.608 30.058-54.123 67.235-67.871 108.854l-0.55 1.924c-46.545 17.222-58.182 98.676-58.182 120.553-0.213 2.451-0.334 5.304-0.334 8.186 0 23.952 8.376 45.947 22.358 63.218l-0.148-0.189c4.307 4.536 9.393 8.282 15.051 11.035l0.309 0.136c-11.636 53.993-22.807 144.756 16.291 194.56 13.786 18.209 34.915 30.234 58.897 31.641l0.216 0.010c107.985 70.749 239.709 74.938 322.56 9.775 66.56-52.596 86.575-139.636 56.785-236.916 5.122-3.001 9.549-6.391 13.513-10.254l-0.015 0.014c13.8-17.013 22.157-38.93 22.157-62.798 0-2.634-0.102-5.245-0.302-7.828l0.021 0.342c0-22.807-11.171-105.193-59.113-121.949-14.294-43.389-37.81-80.415-68.369-110.261l-0.053-0.051v-17.222c0-20.015 0-49.804 122.415-73.542 181.062-35.375 182.924-175.011 182.924-175.011zM120.553 51.898h782.895c-9.775 31.651-40.96 86.109-139.636 105.658v0c-133.12 26.065-160.582 66.56-160.582 119.622v37.702l7.447 6.982c31.927 28.563 55.419 65.939 66.676 108.301l0.35 1.547 4.655 17.222h15.825c16.756 0 30.255 55.855 30.255 76.8 0.452 2.589 0.71 5.571 0.71 8.614 0 11.034-3.398 21.275-9.204 29.732l0.116-0.179c-2.138 2.359-5.214 3.835-8.634 3.835-0.567 0-1.124-0.040-1.668-0.119l0.062 0.007h-33.978l12.102 31.651c33.978 90.298 22.342 163.84-33.513 208.058-67.491 53.062-181.993 46.545-273.222-15.36l-5.585-4.189h-6.516c-0.545 0.030-1.184 0.048-1.826 0.048-11.402 0-21.528-5.467-27.899-13.922l-0.064-0.089c-21.876-28.393-22.807-98.211 0-177.804l7.447-28.858h-32.582c-0.483 0.071-1.040 0.111-1.606 0.111-3.42 0-6.496-1.476-8.625-3.825l-0.009-0.010c-5.375-8.021-8.578-17.891-8.578-28.509 0-2.917 0.242-5.778 0.706-8.564l-0.042 0.302c0-22.342 13.498-78.196 29.324-78.196h18.153l4.655-17.687c11.918-43.264 35.169-80.084 66.364-108.277l0.196-0.174 7.913-6.982v-38.167c0-53.527-27.462-93.091-161.047-119.622-100.073-19.084-131.258-73.542-141.033-105.193z" />
<glyph unicode="&#xe92b;" glyph-name="T-UserGroup" d="M1000.727 131.956c0 41.425-30.72 125.673-148.015 149.411-100.538 20.48-100.538 53.527-100.073 78.196v2.327c65.267 2.444 127.189 11.638 186.667 26.924l-6.071-1.324 39.564 9.775-28.393 29.324-13.498 14.895c-41.425 40.029-77.265 74.473-77.265 260.189 0.6 5.911 0.943 12.774 0.943 19.717 0 63.286-28.446 119.927-73.25 157.836l-0.303 0.25c-35.899 21.375-79.16 34.010-125.372 34.010-27.393 0-53.749-4.44-78.387-12.638l1.752 0.505c-0.351 0.003-0.767 0.004-1.183 0.004-73.284 0-135.169-48.808-154.921-115.691l-0.289-1.142c-52.416-2.465-100.405-19.511-140.547-47.138l0.911 0.593c-24.229-2.403-45.174-14.748-58.962-32.841l-0.15-0.206c-20.629-34.049-32.838-75.194-32.838-119.19 0-22.358 3.153-43.98 9.038-64.446l-0.404 1.642c-10.921-18.329-17.377-40.418-17.377-64.016 0-2.205 0.056-4.396 0.168-6.573l-0.012 0.305s3.724-97.745 50.269-113.571c15.813-39.946 39.596-73.744 69.583-100.795l0.235-0.208v-4.655c0-33.513-38.633-55.389-114.967-65.164-88.518-3.831-159.444-74.11-164.286-162.002l-0.019-0.442v-23.273h728.902v23.273c-0.016 39.171-13.894 75.098-36.994 103.144l0.223-0.279h285.324zM73.542 29.091c15.678 53.030 63.181 91.37 119.894 93.086l0.193 0.005c102.865 13.498 155.462 51.2 155.462 111.709v26.065l-8.378 6.982c-30.997 26.195-54.627 60.18-67.95 98.957l-0.472 1.581-5.12 15.825h-16.756c-10.24 0-23.273 46.545-23.273 68.422 0.244 12.864 2.268 25.163 5.835 36.786l-0.25-0.946h21.411l-7.447 28.858c-6.565 19.168-10.355 41.252-10.355 64.222 0 34.356 8.479 66.732 23.458 95.148l-0.536-1.116c6.364 9.322 16.938 15.362 28.923 15.362 0.141 0 0.281-0.001 0.422-0.002h7.426l6.051 4.189c70.284 50.269 152.204 58.182 206.196 20.015s68.422-108.916 43.287-196.887l-6.051-21.876 18.618-5.585c4.423-11.132 6.988-24.030 6.988-37.527 0-0.389-0.002-0.777-0.006-1.165l0.001 0.059c0-21.876-13.033-68.422-24.204-68.422h-18.153l-4.189-17.687c-10.351-39.718-31.031-73.68-59.004-99.971l-0.109-0.101-7.447-6.982v-25.135c0-46.545 17.222-93.091 144.291-111.244v0c50.24-6.069 90.16-43.781 99.492-92.37l0.115-0.721zM653.964 155.229c-13.566 6.157-29.302 10.589-45.807 12.498l-0.739 0.069c-103.796 14.429-103.796 46.545-103.796 65.629v5.12c26.669 27.616 47.267 61.278 59.527 98.715l0.517 1.823c46.545 18.618 52.131 111.244 52.131 112.175 0.040 1.184 0.062 2.576 0.062 3.974 0 23.575-6.42 45.65-17.607 64.573l0.323-0.591c23.738 100.538 0 186.182-65.164 232.727-18.653 13.105-40.694 22.828-64.495 27.732l-1.134 0.195c17.388 43.825 59.339 74.286 108.428 74.473h9.332s101.469 31.651 164.305-14.429c33.504-30.125 54.479-73.612 54.479-121.999 0-6.213-0.346-12.346-1.019-18.379l0.067 0.742c0-182.458 34.909-236.451 75.869-279.273-45.521-9.282-98.052-14.849-151.793-15.357l-0.411-0.003h-22.807v-50.735c0-46.545 15.825-96.349 139.636-121.018 48.52-4.988 88.608-36.523 105.821-79.663l0.303-0.861z" />
<glyph unicode="&#xe92c;" glyph-name="T-UserGroupUser" d="M876.451 46.778h-728.902v23.273c4.862 88.334 75.787 158.613 163.948 162.431l0.357 0.012c76.335 9.775 114.967 31.651 114.967 65.164v4.655c-29.841 26.907-53.541 60.015-69.153 97.347l-0.665 1.794c-46.545 18.153-52.131 111.244-52.131 112.175-0.234 2.883-0.367 6.242-0.367 9.632 0 23.744 6.537 45.962 17.908 64.952l-0.32-0.576c-5.481 18.823-8.634 40.445-8.634 62.803 0 43.996 12.208 85.14 33.422 120.231l-0.584-1.041c14.059 17.562 34.822 29.252 58.35 31.166l0.297 0.019c37.887 29.778 86.272 47.757 138.857 47.757 42.73 0 82.688-11.872 116.754-32.498l-1.007 0.566c65.164-46.545 88.902-132.655 65.164-232.727 10.864-18.332 17.284-40.408 17.284-63.983 0-1.397-0.023-2.789-0.067-4.176l0.005 0.202s-3.258-93.091-52.131-112.175c-12.777-39.261-33.375-72.922-60.116-100.613l0.072 0.075v-5.12c0-20.48 0-51.2 103.796-65.629 80.87-9.87 142.898-78.116 142.898-160.851 0-0.396-0.001-0.793-0.004-1.188v0.061zM197.818 93.324h629.76c-9.447 49.31-49.367 87.022-99.056 93.037l-0.551 0.054c-127.069 17.687-144.291 66.095-144.291 111.244v24.669l7.447 6.982c27.729 26.476 48.098 60.434 57.87 98.635l0.312 1.438 2.327 18.618h18.153c11.171 0 24.204 46.545 24.204 68.422-0.093 13.89-2.645 27.156-7.241 39.423l0.26-0.79-18.618 5.585 6.051 21.876c24.669 87.971 8.844 160.116-43.287 196.887s-134.516 30.255-206.196-20.015l-6.051-5.12h-6.051c-0.256 0.007-0.558 0.011-0.86 0.011-11.989 0-22.566-6.044-28.852-15.25l-0.078-0.12c-13.744-26.74-21.801-58.348-21.801-91.837 0-23.784 4.064-46.619 11.534-67.849l-0.439 1.431 7.447-28.858h-23.273c-3.22-10.87-5.087-23.363-5.12-36.288v-0.018c0-21.876 13.033-68.422 23.273-68.422h16.756l5.12-15.825c13.924-40.397 37.71-74.386 68.54-100.254l0.347-0.284 8.378-6.982v-26.065c0-60.509-52.596-98.211-155.462-111.709-56.982-1.447-104.663-39.647-120.317-91.713l-0.236-0.913z" />
<glyph unicode="&#xe92d;" glyph-name="E-QuadOFF" d="M837.818 122.182h-651.636v651.636h651.636zM232.727 168.727h558.545v558.545h-558.545z" />
<glyph unicode="&#xe92e;" glyph-name="E-QuadON" d="M209.455 750.545h605.091v-605.091h-605.091v605.091z" />
<glyph unicode="&#xe92f;" glyph-name="E-RadioOFF" d="M512 122.182c-179.944 0-325.818 145.874-325.818 325.818s145.874 325.818 325.818 325.818c179.944 0 325.818-145.874 325.818-325.818v0c0-179.944-145.874-325.818-325.818-325.818v0zM512 727.273c-154.238 0-279.273-125.035-279.273-279.273s125.035-279.273 279.273-279.273c154.238 0 279.273 125.035 279.273 279.273v0c0 154.238-125.035 279.273-279.273 279.273v0z" />
<glyph unicode="&#xe930;" glyph-name="E-RadioON" d="M512 750.545c167.091 0 302.545-135.454 302.545-302.545s-135.454-302.545-302.545-302.545c-167.091 0-302.545 135.454-302.545 302.545s135.454 302.545 302.545 302.545z" />
<glyph unicode="&#xe931;" glyph-name="D-Delete" d="M861.091 719.825h-176.407v100.538c0 12.853-10.42 23.273-23.273 23.273v0h-298.822c-12.853 0-23.273-10.42-23.273-23.273v0-100.538h-176.407v-46.545h51.665v-597.644c0-12.853 10.42-23.273 23.273-23.273v0h548.305c12.853 0 23.273 10.42 23.273 23.273v0 597.644h51.665zM385.862 797.091h252.276v-77.265h-252.276zM762.88 98.909h-501.76v574.371h501.76zM488.727 571.345h46.545v-370.967h-46.545v370.967zM363.985 571.345h46.545v-370.967h-46.545v370.967zM613.469 571.345h46.545v-370.967h-46.545v370.967z" />
<glyph unicode="&#xe932;" glyph-name="D-Edit" d="M867.607 790.575l-6.982 6.051c-23.568 28.815-59.123 47.061-98.94 47.061-29.479 0-56.622-10.002-78.22-26.796l0.287 0.215-9.775-8.844-499.898-499.898c-2.815-3.059-4.916-6.82-6.010-10.989l-0.040-0.182-51.2-216.902c-0.403-1.571-0.635-3.375-0.635-5.232 0-6.402 2.75-12.163 7.134-16.163l0.017-0.015c3.97-4.031 9.488-6.528 15.588-6.528 0.247 0 0.493 0.004 0.738 0.012l-0.036-0.001h5.12l216.902 51.2c4.205 1.344 7.799 3.587 10.704 6.515l500.366 500.366c21.635 22.74 34.945 53.575 34.945 87.52 0 36.483-15.375 69.376-40 92.551l-0.065 0.061zM811.287 614.633l-39.564-39.564-132.655 132.655 39.564 39.564zM203.404 245.993l106.589-106.124-139.636-33.047zM356.073 159.418l-132.655 132.655 381.673 382.604 133.585-133.585zM843.404 648.145l-131.724 131.724c13.588 10.671 30.937 17.113 49.79 17.113 25.821 0 48.819-12.083 63.65-30.904l0.131-0.173 4.189-4.189 6.051-5.12c15.558-14.714 25.24-35.5 25.24-58.548 0-18.924-6.528-36.323-17.454-50.068l0.127 0.165z" />
<glyph unicode="&#xe933;" glyph-name="D-IconDash" d="M947.2 448v0 409.6c0 14.138-11.462 25.6-25.6 25.6v0h-819.2c-14.138 0-25.6-11.462-25.6-25.6v0-819.2c0-14.138 11.462-25.6 25.6-25.6v0h819.2c14.138 0 25.6 11.462 25.6 25.6v0 409.6zM896 473.6h-494.848v358.4h494.848zM128 832h221.952v-768h-221.952zM401.152 64v358.4h494.848v-358.4z" />
<glyph unicode="&#xe934;" glyph-name="D-Preview" d="M949.993 461.033c-7.447 10.705-184.32 266.24-437.993 266.24s-430.545-255.069-437.993-266.24c-2.622-3.615-4.195-8.14-4.195-13.033s1.573-9.418 4.24-13.098l-0.045 0.065c7.447-11.171 186.182-266.24 437.993-266.24s430.545 255.069 437.993 266.24c2.622 3.615 4.195 8.14 4.195 13.033s-1.573 9.418-4.24 13.098l0.045-0.065zM512 215.273c-197.818 0-350.953 181.993-390.051 232.727 39.098 51.2 191.767 232.727 390.051 232.727s350.953-181.993 390.051-232.727c-39.098-51.2-191.767-232.727-390.051-232.727zM512 624.407c-1.247 0.033-2.716 0.052-4.189 0.052-93.571 0-169.425-75.854-169.425-169.425s75.854-169.425 169.425-169.425c93.553 0 169.396 75.825 169.425 169.371v0.003c0.007 0.558 0.011 1.218 0.011 1.878 0 91.728-73.706 166.242-165.124 167.546l-0.123 0.001zM512 332.102c-1.249-0.046-2.716-0.071-4.189-0.071-67.865 0-122.88 55.015-122.88 122.88s55.015 122.88 122.88 122.88c67.84 0 122.839-54.975 122.88-122.805v-0.004c0.014-0.697 0.023-1.518 0.023-2.341 0-65.933-52.93-119.503-118.616-120.537l-0.097-0.001z" />
<glyph unicode="&#xe935;" glyph-name="D-Privilege" d="M512 773.818l-366.313-628.364h732.625zM512 680.727l285.324-488.727h-570.647zM512 326.516c12.853 0 23.273 10.42 23.273 23.273v0 180.596c0 12.853-10.42 23.273-23.273 23.273s-23.273-10.42-23.273-23.273v0-180.596c0-12.853 10.42-23.273 23.273-23.273v0zM533.411 279.505c-1.041 2.992-2.808 5.508-5.094 7.426l-0.026 0.021c-4.272 4.16-10.113 6.725-16.554 6.725-3.087 0-6.036-0.589-8.741-1.661l0.161 0.056c-2.92-1.218-5.4-2.952-7.438-5.11l-0.010-0.010c-2.312-1.939-4.079-4.456-5.084-7.33l-0.036-0.118c-0.314-1.329-0.495-2.854-0.495-4.422s0.18-3.093 0.521-4.557l-0.027 0.135c-0.007-0.2-0.011-0.434-0.011-0.67 0-6.199 2.693-11.769 6.973-15.604l0.020-0.017c1.939-2.312 4.456-4.079 7.33-5.084l0.118-0.036c1.328-0.33 2.853-0.519 4.422-0.519s3.094 0.189 4.553 0.546l-0.131-0.027c0.079-0.001 0.173-0.002 0.267-0.002 6.322 0 12.018 2.682 16.012 6.97l0.012 0.013c2.312 1.939 4.079 4.456 5.084 7.33l0.036 0.118c0.232 1.329 0.365 2.86 0.365 4.422s-0.133 3.093-0.387 4.582l0.023-0.16c-0.377 2.611-1.028 4.963-1.935 7.184l0.073-0.202z" />
<glyph unicode="&#xe936;" glyph-name="D-QuadOFF" d="M837.818 122.182h-651.636v651.636h651.636zM232.727 168.727h558.545v558.545h-558.545z" />
<glyph unicode="&#xe937;" glyph-name="D-QuadON" d="M209.455 750.545h605.091v-605.091h-605.091v605.091z" />
<glyph unicode="&#xe938;" glyph-name="D-SelectAll" d="M884.364 843.636h-744.727c-12.853 0-23.273-10.42-23.273-23.273v0-744.727c0-12.853 10.42-23.273 23.273-23.273v0h744.727c12.853 0 23.273 10.42 23.273 23.273v0 744.727c0 12.853-10.42 23.273-23.273 23.273v0zM861.091 471.273h-450.095v325.818h450.095zM162.909 797.091h201.542v-698.182h-201.542zM410.996 98.909v325.818h450.095v-325.818z" />
<glyph unicode="&#xe939;" glyph-name="D-Share" d="M640 198.516c-95.418 19.084-95.418 41.891-95.418 55.855v12.567c24.163 24.065 42.956 53.503 54.437 86.371l0.487 1.6c39.564 15.825 46.545 82.385 46.545 102.865 0.133 1.783 0.209 3.863 0.209 5.961 0 20.815-7.466 39.886-19.866 54.681l0.108-0.133-8.378 6.982c7.528 18.722 11.895 40.429 11.895 63.156 0 52.908-23.667 100.289-60.991 132.133l-0.242 0.201c-35.539 23.125-79.022 36.877-125.717 36.877-51.618 0-99.31-16.804-137.906-45.241l0.641 0.451c-20.158-1.79-37.65-11.904-49.219-26.837l-0.119-0.16c-32.116-40.96-23.738-114.502-14.895-159.651-3.315-2.258-6.21-4.709-8.827-7.43l-0.017-0.018c-11.797-14.668-18.935-33.519-18.935-54.038 0-2.606 0.115-5.185 0.341-7.732l-0.024 0.33s3.258-83.316 46.545-101.469c11.321-34.691 29.87-64.351 53.99-88.433l0.003-0.003v-13.033c0-14.895 0-37.236-93.091-55.389-119.622-23.273-151.273-106.124-151.273-146.618v-23.273h720.989v23.273c0 40.495-31.651 122.88-151.273 146.153zM121.484 75.636c19.027 43.095 59.783 73.43 108.003 77.237l0.448 0.028c110.313 21.411 132.655 55.855 132.655 101.469v33.047l-7.447 6.982c-24.935 22.804-43.333 52.366-52.31 85.787l-0.287 1.253-4.189 17.687h-19.084c-6.982 0-19.549 36.305-19.549 59.578s3.258 25.135 5.585 26.996 0 0 5.12 0h29.789l-7.447 28.858c-8.224 20.711-12.992 44.708-12.992 69.818s4.768 49.107 13.449 71.134l-0.457-1.316c4.29 5.701 11.043 9.349 18.648 9.349 0.481 0 0.958-0.015 1.431-0.043l-0.065 0.003h7.447l6.051 4.189c31.547 25.378 72.093 40.734 116.226 40.734 35.854 0 69.341-10.135 97.752-27.696l-0.8 0.46c44.218-34.444 53.527-93.091 26.531-165.702l-11.636-31.651h33.513c3.724 0 5.12 0 5.585 0s5.585-8.378 5.585-28.393-12.102-58.182-20.48-58.182h-15.36l-4.655-17.687c-9.387-34.783-27.758-64.466-52.48-87.398l-0.117-0.107-7.913-6.982v-32.582c0-46.545 22.807-79.593 133.12-101.469 48.109-3.647 88.539-33.196 107.655-74.604l0.331-0.799zM930.909 764.975h-78.196v78.662h-46.545v-78.662h-78.662v-46.545h78.662v-78.196h46.545v78.196h78.196v46.545z" />
<glyph unicode="&#xe93a;" glyph-name="D-Shared" d="M731.229 354.909c-4.252-4.218-6.884-10.064-6.884-16.524s2.632-12.305 6.883-16.522l46.547-46.547h-93.091c-0.147-0.001-0.321-0.001-0.495-0.001-29.906 0-56.705 13.304-74.8 34.316l-0.108 0.129-46.545 61.44-28.393 37.702c-10.816 14.352-23.95 26.3-38.954 35.493l-0.61 0.347c15.866 9.808 29.279 21.887 40.242 35.968l0.253 0.337 74.007 98.676c18.041 21.134 44.707 34.448 74.482 34.448 0.324 0 0.648-0.002 0.971-0.005h93.042l-46.545-46.545c-4.394-4.239-7.122-10.179-7.122-16.757 0-12.853 10.42-23.273 23.273-23.273 0.049 0 0.099 0 0.148 0h-0.008c0.189-0.006 0.411-0.010 0.634-0.010 5.976 0 11.367 2.503 15.183 6.517l0.008 0.009 107.52 102.4-107.055 107.52c-4.194 4.114-9.946 6.653-16.291 6.653s-12.096-2.539-16.295-6.656l0.004 0.004c-4.252-4.218-6.884-10.064-6.884-16.524s2.632-12.305 6.883-16.522l46.547-46.547h-93.091c-0.232 0.001-0.506 0.002-0.781 0.002-44.182 0-83.741-19.794-110.292-50.997l-0.17-0.205-72.145-101.469c-18.136-24.639-47.013-40.458-79.587-40.495h-235.526c-12.853 0-23.273-10.42-23.273-23.273s10.42-23.273 23.273-23.273v0h235.055c0.18 0.001 0.392 0.002 0.605 0.002 32.408 0 61.114-15.847 78.793-40.215l0.195-0.282 28.393-38.167 46.545-62.371c26.722-31.408 66.281-51.202 110.463-51.202 0.275 0 0.549 0.001 0.823 0.002h93.049l-46.545-46.545c-5.184-4.3-8.461-10.743-8.461-17.951 0-12.853 10.42-23.273 23.273-23.273 6.86 0 13.027 2.968 17.286 7.69l0.018 0.021 107.52 102.865-109.382 99.607c-4.086 4.346-9.872 7.053-16.291 7.053s-12.205-2.707-16.28-7.041l-0.011-0.012z" />
<glyph unicode="&#xe93b;" glyph-name="ED-01" d="M757.516 846.629h48.762v-748.495h-48.762v748.495zM548.571 775.192h-39.497l-30.964-163.596h-123.368l30.964 163.596h-39.253l-30.964-163.596h-116.785v-37.547h109.714l-32.67-173.349h-106.789v-36.571h99.23l-29.257-159.939h39.253l30.232 160.914h121.905l-29.257-160.914h39.253l30.232 160.914h107.276v36.571h-100.206l32.67 173.349h97.524v36.571h-90.453zM438.857 400.701h-123.855l32.67 173.349h123.368z" />
<glyph unicode="&#xe93c;" glyph-name="ED-02" d="M726.309 734.476h-428.617c-13.465 0-24.381-10.916-24.381-24.381v0-94.842h48.762v70.461h165.547v-475.429h-94.842v-48.762h238.446v48.762h-94.842v475.429h165.547v-70.461h48.762v94.842c0 13.465-10.916 24.381-24.381 24.381v0z" />
<glyph unicode="&#xe93d;" glyph-name="ED-03" d="M999.619 683.764h-235.764v54.126c0.413 32.943 27.215 59.49 60.217 59.49 0.002 0 0.003 0 0.005 0v0 48.762c-34.182-0.063-64.638-15.959-84.435-40.743l-0.167-0.217c-19.964 25.001-50.42 40.897-84.591 40.96h-0.011v-48.762c0.073 0 0.159 0.001 0.246 0.001 32.953 0 59.699-26.576 59.975-59.464v-53.42h-690.712c-13.465 0-24.381-10.916-24.381-24.381v0-390.095c0-13.465 10.916-24.381 24.381-24.381v0h690.712v-86.065c-0.138-33.204-27.017-60.083-60.208-60.221h-0.013v-48.762c34.219 0.126 64.679 16.11 84.431 40.981l0.171 0.223c20.016-25.101 50.552-41.080 84.825-41.204h0.021v48.762c-0.072 0-0.158 0-0.244 0-33.259 0-60.221 26.962-60.221 60.221 0 0 0 0 0 0v0 85.333h235.764c13.465 0 24.381 10.916 24.381 24.381v0 390.095c0 13.465-10.916 24.381-24.381 24.381v0zM48.762 293.669v341.333h666.331v-341.333zM975.238 293.669h-211.383v341.333h211.383zM231.375 419.23h-0.488l-35.109 102.156h-36.571v-138.728h27.794v94.842l0.488 0.244 34.377-95.086h18.773l34.377 94.842 0.488-0.244v-94.598h28.038v138.728h-36.328l-35.84-102.156zM356.693 443.611h51.688v21.455h-51.688v34.865h61.196v21.455h-88.99v-138.728h88.99v21.455h-61.196v39.497zM490.789 463.36c-7.98 2.377-14.942 5.701-21.246 9.928l0.279-0.176c-3.945 2.363-6.552 6.603-6.583 11.455v0.004c-0.002 0.106-0.004 0.231-0.004 0.356 0 4.909 2.165 9.312 5.592 12.306l0.019 0.016c3.855 3.218 8.863 5.172 14.327 5.172 0.535 0 1.066-0.019 1.592-0.056l-0.071 0.004c0.451 0.028 0.978 0.045 1.509 0.045 6.097 0 11.696-2.131 16.093-5.69l-0.048 0.038c3.936-3.662 6.391-8.87 6.391-14.652 0-0.506-0.019-1.008-0.056-1.505l0.004 0.066h27.794c0.025 0.511 0.040 1.11 0.040 1.712 0 11.578-5.309 21.916-13.626 28.712l-0.066 0.053c-9.444 7.192-21.406 11.522-34.379 11.522-0.943 0-1.88-0.023-2.811-0.068l0.131 0.005c-0.825 0.043-1.79 0.068-2.761 0.068-12.439 0-23.933-4.050-33.233-10.904l0.154 0.109c-8.467-6.236-13.9-16.167-13.9-27.366 0-0.15 0.001-0.301 0.003-0.451v0.023c-0.019-0.413-0.030-0.898-0.030-1.385 0-10.312 4.85-19.491 12.393-25.381l0.071-0.054c10.369-7.464 22.481-13.322 35.54-16.883l0.788-0.183c7.536-1.937 14.134-5.128 19.907-9.376l-0.159 0.111c3.307-2.96 5.378-7.241 5.378-12.006 0-0.236-0.005-0.471-0.015-0.705l0.001 0.033c0.008-0.181 0.012-0.393 0.012-0.606 0-4.883-2.279-9.235-5.831-12.048l-0.032-0.024c-4.165-2.941-9.346-4.701-14.938-4.701-0.663 0-1.32 0.025-1.971 0.073l0.087-0.005c-0.494-0.028-1.071-0.044-1.652-0.044-6.804 0-13.091 2.212-18.182 5.956l0.085-0.060c-4.537 3.997-7.384 9.82-7.384 16.307 0 0.611 0.025 1.215 0.075 1.813l-0.005-0.078h-26.819c-0.082-0.927-0.129-2.005-0.129-3.094 0-12.478 6.167-23.515 15.619-30.231l0.114-0.077c10.292-6.892 22.955-11 36.578-11 0.684 0 1.365 0.010 2.043 0.031l-0.099-0.002c0.859-0.044 1.865-0.069 2.877-0.069 12.573 0 24.246 3.853 33.903 10.443l-0.208-0.134c8.6 5.971 14.16 15.796 14.16 26.921 0 0.393-0.007 0.784-0.021 1.174l0.002-0.056c0.015 0.379 0.024 0.824 0.024 1.272 0 10.517-4.723 19.932-12.164 26.238l-0.050 0.041c-9.798 7.995-21.602 13.93-34.526 16.952l-0.582 0.115zM559.299 407.040h27.794v-24.381h-27.794v24.381zM615.863 407.040h27.794v-24.381h-27.794v24.381z" />
<glyph unicode="&#xe93e;" glyph-name="ED-04" d="M268.19 618.667c58.304 0 105.57 47.265 105.57 105.57v0c0 0 0 0 0 0 0 58.353-47.235 105.674-105.556 105.813h-0.013c-56.213-2.784-100.736-49.038-100.736-105.691s44.523-102.907 100.487-105.682l0.248-0.010zM268.19 781.288v0c0.108 0.001 0.236 0.001 0.364 0.001 15.536 0 29.616-6.237 39.871-16.343l-0.007 0.007c10.242-10.2 16.58-24.314 16.58-39.908 0-0.113 0-0.225-0.001-0.338v0.017c0-0.072 0.001-0.158 0.001-0.244 0-31.374-25.434-56.808-56.808-56.808s-56.808 25.434-56.808 56.808c0 31.374 25.433 56.807 56.807 56.808v0zM950.857 960h-877.714c-40.396 0-73.143-32.747-73.143-73.143v0-877.714c0-40.396 32.747-73.143 73.143-73.143v0h877.714c40.396 0 73.143 32.747 73.143 73.143v0 877.714c0 40.396-32.747 73.143-73.143 73.143v0zM73.143 911.238h877.714c13.465 0 24.381-10.916 24.381-24.381v0-641.95h-51.931c-17.579 87.050-39.712 162.435-67.481 235.031l3.359-9.995c-57.051 152.625-119.223 229.912-184.564 229.912-101.425 0-156.526-154.331-189.684-246.735-4.632-13.166-10.24-28.526-14.629-39.253-5.364 5.608-11.459 13.897-16.335 20.236-21.211 28.038-53.394 70.949-115.322 70.949-112.64 0-215.040-182.37-236.739-260.145h-53.15v641.95c0 13.465 10.916 24.381 24.381 24.381v0zM873.813 244.907h-721.432c24.381 63.878 108.495 211.383 186.27 211.383 37.547 0 56.564-24.381 76.556-51.688 17.067-22.674 34.621-46.080 64.366-46.080 24.381 0 30.476 19.749 51.444 78.263 26.819 74.85 76.556 214.309 143.604 214.309 40.472 0 92.16-73.143 138.484-196.998 22.179-57.286 43.086-127.279 58.868-199.191l1.841-9.997zM950.857-15.238h-877.714c-13.465 0-24.381 10.916-24.381 24.381v0 187.002h926.476v-187.002c0-13.465-10.916-24.381-24.381-24.381v0z" />
<glyph unicode="&#xe93f;" glyph-name="ED-05" d="M810.91 466.53l-144.091 249.661h-130.438v243.81h-536.381v-536.381h216.503l140.678-243.81h131.657c12.825-137.323 127.506-243.965 267.094-243.965 148.118 0 268.19 120.073 268.19 268.19 0 128.649-90.583 236.142-211.449 262.176l-1.764 0.318zM48.762 911.238h438.857v-195.048h-130.438l-140.678-243.81h-167.741zM258.682 448l126.537 219.429h253.562l112.64-195.048h-13.653c-3.657 0-7.314 0-10.728 0s-11.947-1.707-18.042-2.682l-7.558-1.219c-8.533-1.707-16.579-3.901-24.381-6.339l-7.558-2.682c-5.364-1.95-10.971-3.901-16.091-6.095l-9.509-4.145c-4.389-2.194-9.021-4.145-13.41-6.583l-9.265-5.608c-4.793-2.525-8.779-4.951-12.609-7.587l0.419 0.272-9.265-6.339-10.971-8.29-8.533-7.314-10.24-9.265-7.802-8.046-9.265-10.24-7.314-8.777q-3.901-5.12-8.046-10.971c-2.194-2.926-4.389-6.095-6.339-9.265s-4.876-7.802-7.314-11.703l-5.364-9.996c-2.194-4.145-4.145-8.29-6.095-12.678s-3.17-6.827-4.632-10.24-3.413-9.021-4.876-13.41l-3.657-10.484-3.657-14.629c0-3.413-1.707-6.827-2.438-10.484s-1.707-10.484-2.438-15.848l-1.463-9.996c0.012-0.104 0.019-0.225 0.019-0.348 0-1.223-0.693-2.285-1.708-2.813l-0.018-0.008h-102.4zM755.81-15.238c-121.187 0-219.429 98.242-219.429 219.429v0c0 7.314 0 14.385 0 21.455 0 0 0 0 0 0 11.088 102.378 91.177 183.051 192.31 194.949l1.031 0.099h2.438c4.389 0 9.021 0 13.653 0l9.996 2.926c11.504-0.172 22.634-1.141 33.515-2.855l-1.333 0.173 12.434-1.95c100.399-21.509 174.579-109.49 174.579-214.796 0-121.105-98.109-219.296-219.184-219.428h-0.013z" />
<glyph unicode="&#xe940;" glyph-name="ED-06" d="M999.619 118.857h-950.857v682.667c0 13.465-10.916 24.381-24.381 24.381s-24.381-10.916-24.381-24.381v0-707.048c0-13.465 10.916-24.381 24.381-24.381v0h975.238c13.465 0 24.381 10.916 24.381 24.381s-10.916 24.381-24.381 24.381v0zM132.632 194.682c6.782 0.029 12.905 2.822 17.307 7.31l144.339 144.339 81.92-82.164 236.739 236.739 187.246-187.246 204.556 204.556c4.382 4.407 7.090 10.481 7.090 17.189s-2.708 12.782-7.091 17.19l0.001-0.001c-4.419 4.454-10.543 7.212-17.31 7.212s-12.891-2.757-17.309-7.21l-170.669-170.669-186.514 187.977-236.739-236.739-81.92 81.92-178.956-178.712c-4.382-4.407-7.090-10.481-7.090-17.189s2.708-12.782 7.091-17.19l-0.001 0.001c4.405-4.492 10.529-7.285 17.305-7.314h0.006z" />
<glyph unicode="&#xe941;" glyph-name="ED-07" d="M472.99 649.874h-3.413c-258.26-0.132-467.78-208.624-469.576-466.48l-0.001-0.172c0-0.042 0-0.091 0-0.141 0-6.698 2.701-12.765 7.072-17.171l-0.002 0.002c4.405-4.492 10.529-7.285 17.305-7.314h118.741c13.465 0 24.381 10.916 24.381 24.381v0c2.034 164.712 134.95 297.714 299.435 299.884l0.207 0.002h2.682c166.061-0.131 300.806-134.021 302.323-299.742l0.001-0.144c0-13.465 10.916-24.381 24.381-24.381v0h118.735c6.782 0.029 12.905 2.822 17.307 7.31l0.004 0.004c4.37 4.405 7.071 10.472 7.071 17.17 0 0.050 0 0.099 0 0.149v-0.008c-2.991 256.512-210.138 463.66-466.366 466.649l-0.285 0.003zM698.514 446.293c-54.929 47.615-125.575 78.434-203.224 83.81l-1.088 0.060v69.73c97.825-5.887 185.616-44.617 253.483-105.197l-0.409 0.359zM119.71 207.36h-70.949c14.013 212.004 183.368 380.262 394.576 392.481l1.127 0.052v-69.73c-172.904-13.698-309.998-150.12-324.664-321.495l-0.090-1.309zM819.931 207.36c-6.144 79.243-37.986 150.060-87.098 205.145l0.302-0.345 48.762 48.762c61.313-67.313 101.042-155.244 107.693-252.266l0.071-1.296zM469.821 737.402c-13.465 0-24.381-10.916-24.381-24.381s10.916-24.381 24.381-24.381v0c279.053-0.416 505.14-226.59 505.417-505.635v-0.026c0-13.465 10.916-24.381 24.381-24.381s24.381 10.916 24.381 24.381v0c-0.277 306.002-248.196 554.007-554.139 554.423h-0.040z" />
<glyph unicode="&#xe942;" glyph-name="ED-08" d="M1024 513.097c-0.277 246.706-200.197 446.626-446.876 446.903h-24.407v-471.284h471.284zM601.478 537.478v373.76c201.067-12.794 360.967-172.694 373.701-372.598l0.059-1.162zM471.284 830.050h-24.381c-242.42-5.84-436.706-203.744-436.706-447.025s194.286-441.184 436.164-447.014l0.542-0.010c0.631-0.003 1.377-0.005 2.123-0.005 123.044 0 234.398 50.054 314.81 130.911l17.33 17.33-309.882 308.907zM710.705 84.724c-69.49-62.045-161.676-99.963-262.719-99.963-0.381 0-0.761 0.001-1.142 0.002h0.059c-219.844 0.057-398.041 178.289-398.041 398.141 0 109.979 44.592 209.543 116.683 281.598l0.002 0.002c66.2 66.72 156.022 109.919 255.869 115.999l1.106 0.054v-407.65zM581.486 407.284l332.312-318.903 16.579 21.455c58.245 74.633 93.45 169.722 93.623 273.027v24.42zM907.703 161.768l-205.044 196.754h272.579c-5.052-73.966-29.571-141.33-68.417-198.119l0.882 1.365z" />
<glyph unicode="&#xe943;" glyph-name="ED-09" d="M999.619 114.712h-8.046v715.337h-178.956v-715.337h-81.189v390.095h-178.712v-390.095h-81.432v520.29h-178.712v-520.29h-81.189v195.048h-178.956v-195.048h-8.046c-13.465 0-24.381-10.916-24.381-24.381s10.916-24.381 24.381-24.381v0h975.238c13.465 0 24.381 10.916 24.381 24.381s-10.916 24.381-24.381 24.381v0zM861.379 781.288h81.432v-666.575h-81.432zM601.478 456.046h81.189v-341.333h-81.189zM341.333 586.24h81.189v-471.528h-81.189zM81.189 260.754h81.432v-146.286h-81.432z" />
<glyph unicode="&#xe944;" glyph-name="ED-10" d="M812.373 508.465c-3.080 1.51-6.703 2.393-10.533 2.393-13.465 0-24.381-10.916-24.381-24.381 0-11.669 8.198-21.424 19.149-23.818l0.161-0.030 178.469-59.002v-400.579l-243.81 80.701v271.36c0 13.465-10.916 24.381-24.381 24.381s-24.381-10.916-24.381-24.381v0-269.897l-341.333-86.065v403.261l36.084 8.777c36.862-51.23 75.52-96.308 117.645-137.883l0.115-0.113 16.823-15.848 16.823 15.848c9.752 9.265 235.032 225.768 235.032 436.907 0 139.096-112.759 251.855-251.855 251.855s-251.855-112.759-251.855-251.855v0c0-89.966 40.96-180.663 88.503-256l-31.695-7.802-316.952 105.326v-502.491l316.952-106.301 390.095 97.524 316.952-104.35v502.491zM512 911.238c0.145 0 0.318 0.001 0.49 0.001 111.553 0 202.050-90.155 202.603-201.578v-0.053c0-158.964-151.65-331.093-203.093-384.975-51.444 53.882-203.093 225.768-203.093 384.975 0.553 111.476 91.050 201.631 202.603 201.631 0.172 0 0.344 0 0.516-0.001h-0.026zM48.762 484.328l243.81-80.701v-401.798l-243.81 81.92zM601.478 710.095c0.002 0.217 0.003 0.474 0.003 0.731 0 49.417-40.061 89.478-89.478 89.478s-89.478-40.061-89.478-89.478c0-49.416 40.059-89.476 89.475-89.478v0c0.001 0 0.002 0 0.003 0 49.16 0 89.061 39.645 89.475 88.707v0.039zM471.284 710.095c0 0.072-0.001 0.158-0.001 0.244 0 22.487 18.229 40.716 40.716 40.716s40.716-18.229 40.716-40.716c0-22.487-18.229-40.716-40.715-40.716v0c-0.072 0-0.158-0.001-0.244-0.001-22.352 0-40.472 18.12-40.472 40.472 0 0 0 0 0 0.001v0z" />
<glyph unicode="&#xe945;" glyph-name="ED-11" d="M1006.446 521.143l-59.246 40.716 36.815 52.907-255.512 195.048c-29.943 44.766-80.293 73.846-137.436 73.846-81.717 0-149.544-59.471-162.561-137.493l-0.133-0.963-184.564-156.526h-7.070c-0.001 0-0.001 0-0.001 0-103.56 0-187.56-83.744-187.976-187.206v-0.040c0-0.109 0-0.238 0-0.367 0-46.594 17.175-89.177 45.54-121.762l-0.191 0.224v-219.429h-76.556v-48.762h451.779v48.762h-86.065v224.061c25.805 31.759 41.436 72.689 41.448 117.27v0.002c0.002 0.28 0.002 0.611 0.002 0.942 0 13.308-1.422 26.284-4.121 38.784l0.218-1.204 117.272 121.905c15.774-5.546 33.962-8.758 52.898-8.777h0.009c26.72 0.062 51.891 6.636 74.028 18.22l-0.885-0.422 208.213-114.834 47.055 65.097 59.49-40.96zM237.227 540.404c76.437-0.415 138.24-62.475 138.24-138.97 0-76.752-62.22-138.971-138.971-138.971s-138.97 62.219-138.971 138.969v0c0 0.001 0 0.001 0 0.002 0 76.752 62.22 138.971 138.971 138.971 0.257 0 0.514-0.001 0.771-0.002h-0.040zM143.604 239.299c26.815-15.935 59.119-25.353 93.623-25.353 36.003 0 69.612 10.255 98.063 28.003l-0.783-0.455v-174.811h-190.903zM402.042 490.91c-21.57 38.941-55.423 68.852-96.248 84.892l-1.276 0.442 125.074 106.301c8.962-40.204 31.615-74.060 62.709-97.212l0.438-0.312zM475.185 718.629c0 64.229 52.068 116.297 116.297 116.297s116.297-52.068 116.297-116.297c0-64.229-52.068-116.297-116.297-116.297v0c-0.145-0.001-0.316-0.001-0.488-0.001-64.229 0-116.297 52.068-116.297 116.297 0 0 0 0.001 0 0.001v0zM858.453 521.143l-149.699 82.651c29.053 29.548 47.005 70.090 47.055 114.824v0.010c0 2.926 0 6.095 0 9.021l161.646-121.905z" />
<glyph unicode="&#xe946;" glyph-name="ED-12" d="M763.855 513.097c-0.139 138.991-112.845 251.611-251.855 251.611-139.096 0-251.855-112.759-251.855-251.855s112.759-251.855 251.855-251.855v0c139.126 0.139 251.855 112.954 251.855 252.099v0zM308.907 513.097c0.139 112.061 91.014 202.85 203.093 202.85 112.165 0 203.093-90.928 203.093-203.093s-90.928-203.093-203.093-203.093v0c-112.195 0.139-203.093 91.123-203.093 203.337v0zM772.145 150.065c113.653 82.075 186.758 214.192 186.758 363.383 0 246.818-200.085 446.903-446.903 446.903s-446.903-200.085-446.903-446.903c0-149.191 73.105-281.307 185.447-362.481l1.311-0.902c-63.634-17.31-121.905-45.836-121.905-92.16 0-83.87 198.217-121.905 382.050-121.905s382.050 38.034 382.050 121.905c0 46.080-57.783 74.85-121.905 92.16zM113.859 513.097c0.139 219.782 178.339 397.897 398.141 397.897 219.887 0 398.141-178.254 398.141-398.141s-178.254-398.141-398.141-398.141v0c-219.861 0.278-398.002 178.504-398.141 398.371v0.013zM512-15.238c-219.429 0-333.288 51.2-333.288 73.143 0 6.095 24.381 35.109 133.12 55.832 58.247-30.133 127.144-47.801 200.168-47.801s141.921 17.669 202.65 48.964l-2.483-1.163c108.983-20.724 133.12-48.762 133.12-55.832 0-21.943-113.859-73.143-333.288-73.143zM633.905 513.097c0 67.326-54.579 121.905-121.905 121.905s-121.905-54.579-121.905-121.905c0-67.326 54.579-121.905 121.905-121.905v0c67.326 0 121.905 54.579 121.905 121.905v0zM438.857 513.097c0 40.396 32.747 73.143 73.143 73.143s73.143-32.747 73.143-73.143c0-40.396-32.747-73.143-73.143-73.143v0c-40.396 0-73.143 32.747-73.143 73.143v0z" />
<glyph unicode="&#xe947;" glyph-name="ED-13" d="M906.24 201.021v299.154h-327.436v-298.667h-456.899c-67.326 0-121.905-54.579-121.905-121.905s54.579-121.905 121.905-121.905v0h780.19c0.58-0.010 1.265-0.016 1.95-0.016 67.335 0 121.92 54.586 121.92 121.92 0 66.649-53.479 120.807-119.867 121.903l-0.103 0.001zM627.566 451.413h229.912v-136.777h-115.81v-48.762h115.81v-45.105h-229.912zM902.095 6.461h-780.19c-40.396 0-73.143 32.747-73.143 73.143s32.747 73.143 73.143 73.143v0h780.19c40.396 0 73.143-32.747 73.143-73.143s-32.747-73.143-73.143-73.143v0zM134.095 128.366c-26.93 0-48.762-21.831-48.762-48.762s21.831-48.762 48.762-48.762c26.93 0 48.762 21.831 48.762 48.762v0c0 26.93-21.831 48.762-48.762 48.762v0zM134.095 79.604v0zM887.71 128.366c-26.93 0-48.762-21.831-48.762-48.762s21.831-48.762 48.762-48.762c26.93 0 48.762 21.831 48.762 48.762v0c0 26.93-21.831 48.762-48.762 48.762v0zM887.71 79.604v0zM693.15 128.366c-26.93 0-48.762-21.831-48.762-48.762s21.831-48.762 48.762-48.762c26.93 0 48.762 21.831 48.762 48.762v0c0 26.93-21.831 48.762-48.762 48.762v0zM693.15 79.604v0zM522.971 128.366c-26.93 0-48.762-21.831-48.762-48.762s21.831-48.762 48.762-48.762c26.93 0 48.762 21.831 48.762 48.762v0c0 26.93-21.831 48.762-48.762 48.762v0zM522.971 79.604v0zM328.655 128.366c-26.93 0-48.762-21.831-48.762-48.762s21.831-48.762 48.762-48.762c26.93 0 48.762 21.831 48.762 48.762v0c0 26.93-21.831 48.762-48.762 48.762v0zM328.655 79.604v0zM444.221 573.318h-327.436v-328.168h327.436zM165.547 293.912v230.644h229.912v-136.777h-115.81v-48.762h115.81v-45.105zM170.667 706.682c-0.155-2.189-0.244-4.743-0.244-7.318 0-60.728 49.23-109.958 109.958-109.958s109.958 49.23 109.958 109.958c0 2.575-0.089 5.129-0.263 7.66l0.019-0.342c-0.093 13.522-2.68 26.414-7.321 38.274l0.251-0.728 60.952 39.253v154.819h-327.192v-154.819l60.952-39.253c-4.272-11.133-6.846-24.006-7.069-37.451l-0.001-0.096zM280.625 645.486c-0.136-0.001-0.297-0.002-0.459-0.002-33.663 0-60.952 27.289-60.952 60.952 0 12.739 3.908 24.565 10.59 34.345l-0.135-0.21c1.219 1.95 2.926 3.657 4.389 5.608s1.95 2.682 3.17 3.901l2.926 2.438c1.896 1.843 3.968 3.528 6.18 5.019l0.159 0.101c2.666 1.819 5.717 3.456 8.938 4.759l0.327 0.117h1.95c2.986 1.598 6.466 3.010 10.102 4.051l0.382 0.094h1.463c1.605 0.12 3.476 0.189 5.364 0.189s3.759-0.069 5.612-0.203l-0.248 0.014h1.95c1.532 0.114 3.318 0.179 5.12 0.179s3.588-0.065 5.357-0.193l-0.237 0.014h2.438c3.345-0.676 6.282-1.602 9.078-2.796l-0.301 0.114 3.17-1.463c2.835-1.343 5.232-2.724 7.509-4.269l-0.194 0.124c1.95 0 3.657-2.926 5.608-4.389 2.027-1.702 3.858-3.456 5.569-5.321l0.039-0.043c2.075-2.255 4.001-4.723 5.718-7.341l0.133-0.217c6.446-9.518 10.29-21.255 10.29-33.89 0-33.663-27.289-60.952-60.952-60.952-0.018 0-0.035 0-0.053 0h0.003zM165.547 889.295h229.912v-79.238l-38.034-24.381c-2.682 2.438-5.851 4.632-8.777 6.827l-7.314 5.851h-1.219c-4.591 2.969-9.883 5.748-15.425 8.045l-0.666 0.245h-2.194c-4.58 1.855-10.272 3.693-16.111 5.161l-0.955 0.203h-3.413c-6.026 1.277-13 2.070-20.138 2.193l-0.099 0.001c-1.46 0.121-3.16 0.19-4.876 0.19s-3.416-0.069-5.098-0.204l0.221 0.014c-1.967 0.115-4.267 0.18-6.583 0.18s-4.616-0.065-6.899-0.195l0.316 0.014c-6.869-1.543-12.813-3.471-18.508-5.873l0.71 0.266-3.657-1.707c-5.833-2.68-10.71-5.363-15.377-8.347l0.504 0.302-2.438-1.707c-5.485-3.609-10.268-7.463-14.651-11.725l0.023 0.022-38.278 24.381z" />
<glyph unicode="&#xe948;" glyph-name="ED-14" d="M950.857 960h-877.714c-40.396 0-73.143-32.747-73.143-73.143v0-877.714c0-40.396 32.747-73.143 73.143-73.143v0h877.714c40.396 0 73.143 32.747 73.143 73.143v0 877.714c0 40.396-32.747 73.143-73.143 73.143v0zM73.143 911.238h877.714c13.465 0 24.381-10.916 24.381-24.381v0-187.002h-926.476v187.002c0 13.465 10.916 24.381 24.381 24.381v0zM950.857-15.238h-877.714c-13.465 0-24.381 10.916-24.381 24.381v0 641.95h926.476v-641.95c0-13.465-10.916-24.381-24.381-24.381v0z" />
<glyph unicode="&#xe949;" glyph-name="ED-15" d="M950.857 960h-877.714c-40.396 0-73.143-32.747-73.143-73.143v0-877.714c0-40.396 32.747-73.143 73.143-73.143v0h877.714c40.396 0 73.143 32.747 73.143 73.143v0 877.714c0 40.396-32.747 73.143-73.143 73.143v0zM73.143 911.238h877.714c13.465 0 24.381-10.916 24.381-24.381v0-187.002h-926.476v187.002c0 13.465 10.916 24.381 24.381 24.381v0zM731.429 651.093v-170.667h-195.048v170.667zM487.619 480.427h-195.048v170.667h195.048zM243.81 480.427h-195.048v170.667h195.048zM243.81 431.665v-195.048h-195.048v195.048zM292.571 431.665h195.048v-195.048h-195.048zM487.619 187.855v-203.093h-195.048v202.85zM536.381 187.855h195.048v-203.093h-195.048zM536.381 236.617v195.048h195.048v-195.048zM780.19 431.665h195.048v-195.048h-195.048zM780.19 480.427v170.667h195.048v-170.667zM48.762 9.143v178.469h195.048v-202.85h-170.667c-13.465 0-24.381 10.916-24.381 24.381v0zM950.857-15.238h-170.667v202.85h195.048v-178.469c0-13.465-10.916-24.381-24.381-24.381v0z" />
<glyph unicode="&#xe94a;" glyph-name="ED-16" d="M945.493 960h-866.987c-40.396 0-73.143-32.747-73.143-73.143v0-877.714c0-40.396 32.747-73.143 73.143-73.143v0h866.987c40.396 0 73.143 32.747 73.143 73.143v0 877.714c0 40.396-32.747 73.143-73.143 73.143v0zM969.874 886.857v-417.646h-438.857v435.931c-0.588 2.312-1.424 4.341-2.501 6.214l0.063-0.118h416.914c13.147-0.407 23.65-11.162 23.65-24.37 0-0.004 0-0.008 0-0.012v0.001zM78.507 911.238h403.749c-0.626-1.79-1.060-3.865-1.215-6.017l-0.005-0.079v-435.931h-426.179v417.646c0 0.003 0 0.007 0 0.011 0 13.208 10.503 23.963 23.612 24.369l0.037 0.001zM54.126 9.143v411.307h426.91v-435.688h-402.53c-13.147 0.407-23.65 11.162-23.65 24.37 0 0.004 0 0.008 0 0.012v-0.001zM944.762-15.238h-414.476v435.688h438.857v-411.307c0-0.003 0-0.007 0-0.011 0-13.208-10.503-23.963-23.612-24.369l-0.037-0.001z" />
<glyph unicode="&#xe94b;" glyph-name="E-Copy-copia-2" d="M512-46.592c-273.037 0.156-494.317 221.533-494.317 494.592 0 273.156 221.436 494.592 494.592 494.592s494.592-221.436 494.592-494.592c0-136.646-55.414-260.349-144.997-349.864l-0.003-0.003c-89.179-89.41-212.502-144.727-348.744-144.727-0.394 0-0.789 0-1.183 0.001h0.061zM512 909.141c-254.045-0.343-459.856-206.366-459.856-460.458 0-126.663 51.143-241.381 133.905-324.63l-0.022 0.022c83.72-85.135 200.137-137.89 328.876-137.89 254.681 0 461.141 206.46 461.141 461.141s-206.46 461.141-461.141 461.141c-1.020 0-2.040-0.003-3.059-0.010l0.156 0.001z" />
<glyph unicode="&#xe94c;" glyph-name="E-Copy" d="M633.173 690.005h-363.179v-363.179h86.699v257.707c0 9.426 7.641 17.067 17.067 17.067v0h259.413zM390.827 569.173h363.179v-363.179h-363.179v363.179zM0 960v-1024h1024v1024zM788.139 188.928c0-9.426-7.641-17.067-17.067-17.067v0h-395.605c-9.426 0-17.067 7.641-17.067 17.067v0 102.4h-102.4c-9.426 0-17.067 7.641-17.067 17.067v0 398.677c0 9.426 7.641 17.067 17.067 17.067v0h394.24c9.426 0 17.067-7.641 17.067-17.067v0-102.4h102.4c9.426 0 17.067-7.641 17.067-17.067v0z" />
<glyph unicode="&#xe94d;" glyph-name="E-DeActive" d="M512-46.592c-273.037 0.156-494.317 221.533-494.317 494.592 0 273.156 221.436 494.592 494.592 494.592s494.592-221.436 494.592-494.592c0-136.646-55.414-260.349-144.997-349.864l-0.003-0.003c-89.179-89.41-212.502-144.727-348.744-144.727-0.394 0-0.789 0-1.183 0.001h0.061zM512 909.141c-254.045-0.343-459.856-206.366-459.856-460.458 0-126.663 51.143-241.381 133.905-324.63l-0.022 0.022c83.72-85.135 200.137-137.89 328.876-137.89 254.681 0 461.141 206.46 461.141 461.141s-206.46 461.141-461.141 461.141c-1.020 0-2.040-0.003-3.059-0.010l0.156 0.001zM480.256 280.405l-155.648 155.307c-3.101 3.101-5.019 7.385-5.019 12.117 0 9.464 7.672 17.136 17.136 17.136 4.732 0 9.016-1.918 12.117-5.019l131.413-131.413 242.005 242.347c3.13 3.037 7.405 4.91 12.117 4.91s8.987-1.872 12.122-4.914l-0.004 0.004c3.118-3.093 5.048-7.38 5.048-12.117s-1.93-9.024-5.047-12.116l-0.001-0.001z" />
<glyph unicode="&#xe94e;" glyph-name="E-SharingD" d="M890.88 448v0 368.64c0 5.655-4.585 10.24-10.24 10.24v0h-737.28c-5.655 0-10.24-4.585-10.24-10.24v0-737.28c0-5.655 4.585-10.24 10.24-10.24v0h737.28c5.655 0 10.24 4.585 10.24 10.24v0 368.64zM870.4 458.24h-471.040v348.16h471.040zM153.6 806.4h225.28v-716.8h-225.28zM399.36 89.6v348.16h471.040v-348.16z" />
<glyph unicode="&#xe94f;" glyph-name="A-Boolean" d="M898.327 236.684h-204.8c-12.853 0-23.273 10.42-23.273 23.273v0 352.815h-316.509v-350.953c0-12.853-10.42-23.273-23.273-23.273v0h-204.8c-12.853 0-23.273 10.42-23.273 23.273v0c0 12.853 10.42 23.273 23.273 23.273v0h181.527v349.091c0 12.853 10.42 23.273 23.273 23.273v0h363.055c12.853 0 23.273-10.42 23.273-23.273v0-352.815h181.527c12.853 0 23.273-10.42 23.273-23.273v0c-0.994-12.027-11-21.411-23.198-21.411-0.026 0-0.052 0-0.079 0h0.004z" />
<glyph unicode="&#xe950;" glyph-name="A-Double" d="M637.207 128.233h-14.895c-105.658 17.222-120.087 168.96-134.051 316.509-12.567 130.793-22.807 264.378-95.418 275.549-53.062 6.982-80.989-53.993-122.415-156.858-22.728-65.555-51.211-122.321-85.99-174.533l1.742 2.781c-4.291-5.678-11.031-9.309-18.618-9.309-12.853 0-23.273 10.42-23.273 23.273 0 5.266 1.749 10.123 4.697 14.022l-0.042-0.059c30.622 46.335 57.205 99.545 77.085 155.918l1.576 5.13c40.96 102.865 80.058 199.68 172.684 186.182 105.658-16.756 120.087-168.96 134.051-316.044 12.567-129.396 25.6-263.447 93.091-274.618 50.735-7.913 90.298 88.436 124.276 173.615 28.858 72.145 53.993 134.982 93.091 156.858 2.816 1.304 6.111 2.065 9.585 2.065 12.853 0 23.273-10.42 23.273-23.273 0-7.708-3.747-14.541-9.52-18.776l-0.065-0.045c-24.204-14.429-49.804-77.731-72.145-134.051-36.771-96.349-80.058-204.335-158.72-204.335z" />
<glyph unicode="&#xe951;" glyph-name="A-Model" d="M437.527 675.142h-51.2v-454.284h51.2v-42.356h-104.727v538.996h104.727zM586.007 717.498h105.193v-538.996h-105.193v42.356h51.665v454.284h-51.665z" />
<glyph unicode="&#xe952;" glyph-name="A-Number" d="M797.324 164.073h-145.687c-12.853 0-23.273 10.42-23.273 23.273v0 150.342h-111.709c-12.749 0.255-23.017 10.524-23.272 23.249v150.831h-116.364c-12.853 0-23.273 10.42-23.273 23.273v0 150.342h-93.091v-150.342c0-12.853-10.42-23.273-23.273-23.273v0h-139.636c-12.853 0-23.273 10.42-23.273 23.273v0c0.255 12.749 10.524 23.017 23.249 23.272h115.457v150.342c0 12.853 10.42 23.273 23.273 23.273v0h139.636c12.853 0 23.273-10.42 23.273-23.273v0-150.342h116.364c12.853 0 23.273-10.42 23.273-23.273v0-150.807h112.64c12.853 0 23.273-10.42 23.273-23.273v0-150.342h98.676v150.342c0 12.853 10.42 23.273 23.273 23.273v0h107.055v150.807c0 12.853 10.42 23.273 23.273 23.273v0c12.749-0.255 23.017-10.524 23.272-23.249v-174.104c0-12.853-10.42-23.273-23.273-23.273v0h-107.055v-150.342c0-0.001 0-0.003 0-0.005 0-12.69-10.156-23.007-22.783-23.268h-0.024z" />
<glyph unicode="&#xe953;" glyph-name="A-String" d="M393.775 252.509c0 8.844-3.258 16.756-4.189 23.273-0.22 3.132-0.345 6.788-0.345 10.473s0.125 7.34 0.372 10.963l-0.027-0.49c-10.304-14.681-23.367-26.704-38.522-35.53l-0.577-0.31c-14.908-8.976-32.884-14.326-52.102-14.429h-0.029c-2.214-0.187-4.791-0.294-7.394-0.294-24.056 0-45.981 9.125-62.503 24.102l0.078-0.070c-15.067 15.491-24.358 36.667-24.358 60.013 0 1.812 0.056 3.611 0.166 5.395l-0.012-0.245c-0.060 1.136-0.095 2.466-0.095 3.804 0 25.617 12.619 48.288 31.98 62.133l0.231 0.157c24.037 15.044 53.24 23.966 84.528 23.966 3.012 0 6.005-0.083 8.977-0.246l-0.414 0.018h58.182v29.324c0.036 0.729 0.056 1.584 0.056 2.443 0 14.65-5.886 27.926-15.422 37.592l0.006-0.006c-10.806 9.43-25.035 15.18-40.608 15.18-2.091 0-4.157-0.104-6.195-0.306l0.257 0.021c-0.986 0.054-2.141 0.084-3.302 0.084-14.742 0-28.332-4.93-39.212-13.232l0.157 0.115c-9.635-7.016-15.826-18.257-15.826-30.945 0-0.084 0-0.169 0.001-0.253v0.013h-49.804c-0.005 0.325-0.008 0.709-0.008 1.093 0 23.919 11.869 45.065 30.039 57.87l0.224 0.15c21.048 16.607 47.956 26.638 77.207 26.638 1.821 0 3.633-0.039 5.435-0.116l-0.257 0.009c1.796 0.093 3.9 0.146 6.016 0.146 28.315 0 54.41-9.505 75.268-25.498l-0.295 0.217c18.958-17.11 30.821-41.769 30.821-69.198 0-1.528-0.037-3.047-0.11-4.556l0.008 0.213v-142.429c0-10.24 0-20.48 0-30.255 1.201-10.77 3.33-20.549 6.349-29.929l-0.298 1.071zM304.407 291.607c19.688 0.363 37.856 6.576 52.92 16.967l-0.323-0.211c13.74 7.832 24.409 19.702 30.543 33.98l0.177 0.463v46.545h-61.905c-1.124 0.057-2.441 0.089-3.766 0.089-18.277 0-35.115-6.16-48.551-16.518l0.186 0.138c-11.897-8.543-19.555-22.337-19.555-37.921 0-0.25 0.002-0.5 0.006-0.75v0.038c-0.026-0.539-0.040-1.172-0.040-1.807 0-11.322 4.646-21.558 12.136-28.907l0.006-0.006c8.84-7.672 20.461-12.348 33.174-12.348 1.759 0 3.496 0.089 5.209 0.264l-0.215-0.018zM732.16 354.909h-149.876l-35.375-101.935h-54.458l142.895 397.033h46.545l139.636-397.033h-54.458zM598.109 401.455h118.691l-57.716 168.495z" />
</font>
</defs>
</svg>
