<svg xmlns="http://www.w3.org/2000/svg" xmlns:xlink="http://www.w3.org/1999/xlink" width="22" height="22" viewBox="0 0 22 22">
  <defs>
    <clipPath id="clip-E_-_DI_-_CC_App_Store_-_icon_small_-_Artifact_Registry_v01">
      <rect width="22" height="22"/>
    </clipPath>
  </defs>
  <g id="E_-_DI_-_CC_App_Store_-_icon_small_-_Artifact_Registry_v01" data-name="E - DI - CC App Store - icon small - exxxample v01" clip-path="url(#clip-E_-_DI_-_CC_App_Store_-_icon_small_-_Artifact_Registry_v01)">
    <rect width="22" height="22" fill="transparent"/>
    <g id="Group_6158" data-name="Group 6158" transform="translate(33.729 79.767)">
      <path id="Path_4983" data-name="Path 4983" d="M-24.015-66.378l.226-.226v3.367a.5.5,0,0,0,.5.5.5.5,0,0,0,.5-.5V-66.6l.225.226a.5.5,0,0,0,.354.147.5.5,0,0,0,.353-.147.5.5,0,0,0,0-.707l-1.078-1.078a.486.486,0,0,0-.163-.109.5.5,0,0,0-.382,0,.477.477,0,0,0-.163.109l-1.079,1.078a.5.5,0,0,0,0,.707A.5.5,0,0,0-24.015-66.378Z" />
      <path id="Path_4984" data-name="Path 4984" d="M-21.572-63.963l1.078,1.079a.5.5,0,0,0,.163.108.505.505,0,0,0,.191.039.506.506,0,0,0,.191-.039.489.489,0,0,0,.163-.108l1.079-1.079a.5.5,0,0,0,0-.707.5.5,0,0,0-.707,0l-.226.226v-3.367a.5.5,0,0,0-.5-.5.5.5,0,0,0-.5.5v3.367l-.225-.226a.5.5,0,0,0-.707,0A.5.5,0,0,0-21.572-63.963Z" />
      <path id="Path_4985" data-name="Path 4985" d="M-15.127-70.587h-.849v-3.734a.5.5,0,0,0-.146-.354l-2.249-2.249a.5.5,0,0,0-.354-.146h-3.327a.5.5,0,0,0-.5.5v2.1h-.622V-75.6a.5.5,0,0,0-.5-.5h-3.245a.5.5,0,0,0-.5.5v1.971h-2.91a.5.5,0,0,0-.5.5h0v11.4a1.263,1.263,0,0,0,1.261,1.259h13.681a1.261,1.261,0,0,0,1.26-1.26v-8.364A.5.5,0,0,0-15.127-70.587Zm-3.145-4.823.64.639h-.64Zm-3.28-.66h2.28v1.8a.5.5,0,0,0,.5.5h1.8v3.184h-3.13v-3.38a.5.5,0,0,0-.5-.5h-.946Zm.446,2.6v2.88h-2.068v-2.88ZM-24.174-75.1v4.509h-.485v-3.38a.5.5,0,0,0-.5-.5h-1.26V-75.1Zm-2.245,1.629h.76v2.88h-.76Zm-2.384,3.38v8.361c0,.164-.169.242-.322.263h-.443a.261.261,0,0,1-.261-.26v-10.9h2.41v2.038H-28.3A.5.5,0,0,0-28.8-70.087Zm13.176,8.364a.259.259,0,0,1-.26.26H-27.83a1.341,1.341,0,0,0,.027-.263v-7.861h12.176Z" />
    </g>
  </g>
</svg>
